<svg xmlns="http://www.w3.org/2000/svg" width="19" height="19" viewBox="0 0 19 19" fill="none">
<path d="M18.3831 4.7006C18.0965 3.88745 17.4382 3.42403 16.5551 3.42403C12.6525 3.42341 8.75001 3.42341 4.84749 3.42341C4.75541 3.42341 4.66332 3.42341 4.54492 3.42341C4.45341 2.95073 4.36819 2.49843 4.27781 2.04798C4.08964 1.11311 3.39699 0.489042 2.51559 0.466798C2.13752 0.456911 1.75888 0.456294 1.38138 0.467416C0.880911 0.481627 0.506273 0.899322 0.500553 1.43071C0.494834 1.97631 0.866611 2.40451 1.37394 2.42552C1.63019 2.43602 1.88757 2.42922 2.14438 2.42922C2.49786 2.42984 2.49443 2.42984 2.56764 2.80985C3.34608 6.87187 4.01643 10.1751 4.77485 14.2415C4.9493 15.1782 5.6145 15.9753 6.72983 15.9951C6.51592 16.2539 6.38494 16.5944 6.38208 16.9689C6.37578 17.7956 6.97578 18.4549 7.73878 18.4586C8.49949 18.4629 9.11664 17.8042 9.11893 16.9868C9.12008 16.6049 8.98109 16.2527 8.75573 15.987C10.2142 15.9827 11.6733 15.9845 13.1318 15.9864C12.9105 16.2472 12.7738 16.5926 12.7709 16.9695C12.7652 17.7906 13.3721 18.4549 14.1316 18.4592C14.8935 18.4635 15.5084 17.8067 15.5095 16.988C15.5101 16.6043 15.3734 16.2533 15.1497 15.9883C15.3453 15.9883 15.541 15.9889 15.7366 15.9889C15.843 15.9889 15.9511 15.9852 16.0557 15.9654C16.5991 15.8634 16.9303 15.2882 16.7775 14.7185C16.6609 14.2829 16.3028 14.0129 15.8315 14.0129C12.8424 14.0122 9.85276 14.0122 6.86367 14.0122C6.77845 14.0122 6.6938 14.0122 6.59599 14.0122L6.43412 12.4594C6.53822 12.4594 6.6223 12.4594 6.70638 12.4594C9.53189 12.4594 12.3568 12.4594 15.1823 12.4594C16.1873 12.4594 16.8639 11.9008 17.1076 10.856C17.5531 8.94546 17.9936 7.86297 18.4345 5.95121C18.5312 5.52857 18.5278 5.1115 18.3831 4.7006Z" fill="#F40C44"/>
<script xmlns=""/></svg>