<svg xmlns="http://www.w3.org/2000/svg" width="14" height="14" viewBox="0 0 14 14" fill="none">
    <g clip-path="url(#clip0_9139_4132)">
    <path d="M13.986 3.04043C13.9619 2.84275 13.9663 2.64215 13.905 2.4485C13.709 1.83208 13.371 1.31103 12.8976 0.869271C12.4742 0.474648 11.9807 0.219239 11.4325 0.0588316C11.3062 0.021927 11.1752 0.0113306 11.0434 0.0292348C11.0387 0.0361772 11.035 0.0427543 11.0318 0.048966C10.8821 0.0270424 10.7339 0.000368818 10.581 0.000368818C8.22424 0.00183039 5.86713 0.00256117 3.51037 3.426e-06C3.24539 -0.000361966 2.98551 0.028504 2.72746 0.0847744C1.17515 0.423858 0.0163034 1.86204 0.0163034 3.44967C0.0163034 5.56785 0.0163034 7.68566 0.0166684 9.80384C0.0166684 9.83015 0.0173984 9.85682 0.0177634 9.88313C0.0133835 9.94452 0.00936857 10.0059 0.00498867 10.0673C0.000608761 10.2814 -0.00377114 10.4959 0.00535366 10.7093C0.0152084 10.9446 0.00498867 11.1858 0.0710522 11.4134C0.416335 12.598 1.16639 13.4121 2.31758 13.8593C2.57307 13.9587 2.84134 13.9536 3.10304 14C4.40497 14 5.70689 14 7.00846 14C7.73662 14 8.46514 14 9.1933 14C9.50281 14 9.81232 14 10.1218 14C10.1766 14 10.231 14 10.2857 14C10.4861 14 10.6861 14 10.8865 14C10.919 13.9748 10.9566 13.9872 10.9916 13.9868C11.4062 13.985 11.7895 13.8615 12.1494 13.6679C12.5687 13.442 12.9432 13.1563 13.2425 12.78C13.6097 12.3181 13.9002 11.8208 13.9667 11.219C13.978 11.1163 13.9751 11.0118 13.9999 10.9102C13.9999 8.56808 13.9999 6.22592 13.9999 3.88339C13.9999 3.82858 13.9999 3.77414 13.9999 3.71933C13.9999 3.51873 13.9999 3.31849 13.9999 3.11789C13.9787 3.09524 13.9893 3.06674 13.986 3.04043Z" fill="#0D6EFD"/>
    <path d="M6.24854 13.9992C6.24854 12.2998 6.24708 10.6 6.25183 8.90053C6.25219 8.77227 6.21533 8.74414 6.09415 8.74669C5.72113 8.75437 5.34774 8.75071 4.97472 8.74925C4.67944 8.74816 4.50206 8.56802 4.50096 8.26986C4.49987 7.85989 4.4995 7.44955 4.50096 7.03958C4.50206 6.73996 4.67762 6.56348 4.97618 6.56238C5.36307 6.56092 5.74997 6.55946 6.13686 6.56384C6.22555 6.56494 6.25183 6.54046 6.25073 6.45057C6.24599 6.06325 6.25292 5.67594 6.24745 5.28862C6.24635 4.59913 6.31716 4.04191 6.31716 4.04191C6.34928 3.87529 6.36972 3.834 6.3898 3.78065C6.48287 3.52999 6.62303 3.30527 6.79421 3.10504C7.34133 2.46633 8.03336 2.12506 8.88196 2.12433C9.2955 2.12396 9.7094 2.13456 10.1226 2.1214C10.4489 2.11117 10.696 2.35525 10.6843 2.68045C10.6715 3.02977 10.6803 3.37981 10.6806 3.72986C10.6854 3.80257 10.6832 3.87565 10.6799 3.94836C10.6679 4.23154 10.4759 4.42812 10.1926 4.43543C9.83313 4.44493 9.47361 4.43762 9.1141 4.43872C9.04584 4.43909 8.97759 4.43762 8.90934 4.44018C8.64873 4.45114 8.50456 4.59145 8.49982 4.85271C8.49252 5.25793 8.49799 5.66352 8.49726 6.0691C8.49726 6.13743 8.49653 6.20576 8.49763 6.27409C8.50018 6.4714 8.52281 6.49661 8.71699 6.49734C9.14001 6.49953 9.5634 6.49771 9.98643 6.49807C10.0963 6.49807 10.2843 6.4809 10.3846 6.53461C10.5292 6.61207 10.6047 6.6994 10.6036 6.87954C10.6033 6.94677 10.6022 7.01839 10.5781 7.11705C10.4846 7.51569 10.4098 7.91872 10.3335 8.32065C10.2773 8.61808 10.0908 8.82343 9.7375 8.81429C9.41047 8.80589 9.08271 8.81174 8.75531 8.81283C8.51733 8.81356 8.49799 8.8322 8.49763 9.06861C8.4969 10.5981 8.49799 12.1273 8.4969 13.6568C8.4969 13.6886 8.50201 13.7204 8.49325 13.7518C8.47244 13.8337 8.52281 13.9327 8.43339 13.9977C7.70523 13.9992 6.9767 13.9992 6.24854 13.9992Z" fill="#F2F2F2"/>
    </g>
    <defs>
    <clipPath id="clip0_9139_4132">
    <rect width="14" height="14" fill="white"/>
    </clipPath>
    </defs>
    <script xmlns=""/></svg>