<svg xmlns="http://www.w3.org/2000/svg" width="48" height="48" viewBox="0 0 48 48" fill="none">
    <g clip-path="url(#clip0_722_3095)">
    <path d="M24 48C37.2548 48 48 37.2548 48 24C48 10.7452 37.2548 0 24 0C10.7452 0 0 10.7452 0 24C0 37.2548 10.7452 48 24 48Z" fill="url(#paint0_linear_722_3095)"/>
    <g clip-path="url(#clip1_722_3095)">
    <path d="M11.43 21.9498C10.961 20.6806 10.63 19.3842 10.7126 18.0046C10.7678 17.1495 11.099 16.4324 11.7335 15.8254C12.3954 15.1909 13.0576 14.501 13.7198 13.8668C14.5749 13.0117 15.6784 13.0117 16.5338 13.8668L18.1337 15.4667C18.6579 15.9909 19.1818 16.4876 19.6785 17.0117C20.5888 17.922 20.5888 18.9978 19.6785 19.9083C19.044 20.5703 18.3821 21.2047 17.7199 21.8395C17.5544 22.0047 17.5267 22.1427 17.6096 22.3634C18.0509 23.4117 18.6579 24.3223 19.375 25.2051C20.782 26.9431 22.4096 28.4878 24.3131 29.7019C24.7269 29.95 25.1682 30.1429 25.6095 30.3638C25.8304 30.4741 25.9684 30.4464 26.1613 30.2535C26.7958 29.5913 27.4577 28.9291 28.1202 28.2672C28.9753 27.4121 30.0788 27.4121 30.9342 28.2672C31.9823 29.3155 33.058 30.3638 34.1066 31.4396C34.9892 32.3224 34.9892 33.4259 34.1066 34.3087C33.4996 34.9155 32.8651 35.4948 32.3132 36.1293C31.4858 37.0399 30.4652 37.3431 29.2789 37.2879C27.5683 37.2053 25.9684 36.626 24.4511 35.8812C21.0578 34.2259 18.1337 31.936 15.7059 29.0394C13.8853 26.9153 12.3954 24.5706 11.43 21.9498ZM37.2936 22.5314C36.6644 16.3168 31.7331 11.3689 25.5263 10.7129C24.777 10.6336 24.1199 11.2093 24.1199 11.9628V11.9869C24.1199 12.6323 24.6093 13.1685 25.2511 13.2362C30.2533 13.7635 34.2573 17.7451 34.7907 22.7643C34.8595 23.4111 35.4036 23.9023 36.054 23.8953C36.7848 23.8871 37.3672 23.2585 37.2936 22.5314ZM24.1199 16.7253V16.7429C24.1199 17.3444 24.5413 17.8789 25.1343 17.9805C26.3523 18.1891 27.4796 18.7713 28.3683 19.66C29.257 20.5487 29.8391 21.676 30.048 22.894C30.1494 23.487 30.6839 23.9084 31.2856 23.9084H31.2968C32.0724 23.9084 32.675 23.2107 32.5392 22.4468C31.9092 18.8998 29.1061 16.0956 25.5767 15.4818C24.8143 15.3491 24.1199 15.9517 24.1199 16.7253Z" fill="white"/>
    </g>
    </g>
    <defs>
    <linearGradient id="paint0_linear_722_3095" x1="7.02979" y1="7.02979" x2="40.9702" y2="40.9702" gradientUnits="userSpaceOnUse">
    <stop stop-color="#FF679A"/>
    <stop offset="0.79" stop-color="#E62096"/>
    <stop offset="1" stop-color="#E00D95"/>
    </linearGradient>
    <clipPath id="clip0_722_3095">
    <rect width="48" height="48" fill="white"/>
    </clipPath>
    <clipPath id="clip1_722_3095">
    <rect width="28" height="28" fill="white" transform="translate(10 10)"/>
    </clipPath>
    </defs>
    <script xmlns=""/></svg>