<svg xmlns="http://www.w3.org/2000/svg" width="18" height="18" viewBox="0 0 18 18" fill="none">
<path fill-rule="evenodd" clip-rule="evenodd" d="M17.6585 14.3294C17.169 13.4708 16.3778 13.048 15.3666 13.0468C11.1139 13.0419 6.8612 13.0442 2.60852 13.0471C2.41602 13.0473 2.22052 13.0669 2.03172 13.1029C1.00616 13.2987 0.172405 14.1307 0.0291318 15.1484C-0.105129 16.1022 0.226017 16.8842 0.995072 17.4842C1.46418 17.8503 2.01509 18.0011 2.61799 18C4.14706 17.997 5.67613 17.9975 7.20511 17.998H7.20515H7.20519H7.20523C7.79699 17.9983 8.38875 17.9985 8.98049 17.9985L10.252 17.9985C11.949 17.9985 13.6461 17.9986 15.343 17.998L15.3969 17.9982H15.3969C15.4998 17.9986 15.6031 17.999 15.7044 17.9864C16.4658 17.8919 17.0863 17.5549 17.5189 16.9367C18.104 16.0998 18.1613 15.2117 17.6585 14.3294ZM15.0129 15.7275C14.9297 15.6801 14.8468 15.6324 14.7597 15.5824L14.6501 15.5194C14.6941 15.4949 14.7363 15.4718 14.7773 15.4494C14.8619 15.4031 14.941 15.3598 15.0183 15.3136C15.223 15.1909 15.2632 14.9556 15.1118 14.7862C15.0032 14.6644 14.8329 14.636 14.673 14.718C14.5907 14.7603 14.5097 14.8051 14.4224 14.8535C14.3813 14.8762 14.3389 14.8997 14.2943 14.9241C14.2943 14.8833 14.2948 14.8446 14.2952 14.8073V14.8073V14.8073V14.8073C14.2963 14.7255 14.2973 14.6509 14.2926 14.5766C14.2878 14.5001 14.2816 14.4188 14.2506 14.3502C14.1896 14.2141 14.0274 14.1421 13.8772 14.1665C13.7334 14.1897 13.6066 14.3055 13.5938 14.4528C13.585 14.5557 13.587 14.6594 13.5891 14.7707V14.7707C13.5901 14.8218 13.5911 14.8745 13.5911 14.9294C13.546 14.9045 13.5037 14.8809 13.4631 14.8583L13.4627 14.8581L13.4626 14.858C13.3802 14.8121 13.305 14.7701 13.229 14.7294C13.0325 14.6246 12.8264 14.6713 12.7236 14.8423C12.6214 15.0121 12.6822 15.2079 12.8756 15.3221C12.9496 15.3657 13.0247 15.4077 13.1047 15.4524L13.1047 15.4524L13.1047 15.4524C13.1444 15.4745 13.1852 15.4974 13.2278 15.5214C13.1884 15.5436 13.1505 15.5647 13.1137 15.5852C13.0295 15.632 12.951 15.6757 12.874 15.7217C12.6894 15.8319 12.6237 16.0366 12.7196 16.1932C12.8289 16.3722 13.0298 16.4192 13.2322 16.3112C13.3059 16.272 13.3788 16.2315 13.4577 16.1876C13.498 16.1652 13.5398 16.1419 13.5841 16.1175C13.5841 16.1666 13.5835 16.2138 13.5829 16.2596V16.2597V16.2598V16.2598V16.2599C13.5816 16.3576 13.5803 16.449 13.5855 16.5401C13.6005 16.8096 13.8813 16.9656 14.1124 16.8357C14.246 16.7606 14.2968 16.6417 14.295 16.4965C14.2939 16.4169 14.2941 16.3373 14.2944 16.2507V16.2506V16.2506V16.2505C14.2946 16.2083 14.2947 16.1644 14.2947 16.1181L14.3657 16.1574C14.4169 16.1858 14.4603 16.2099 14.5046 16.2326C14.5273 16.2442 14.5499 16.2566 14.5725 16.2691C14.6328 16.3023 14.6933 16.3355 14.7581 16.355C15.0097 16.4308 15.2487 16.206 15.1918 15.9568C15.1673 15.8524 15.1056 15.7802 15.0129 15.7275ZM4.88608 15.586L4.88609 15.586C4.97738 15.6372 5.0653 15.6864 5.1516 15.7383C5.28909 15.8212 5.35126 15.9734 5.31105 16.112C5.24889 16.3256 5.02797 16.4287 4.8193 16.3355C4.75015 16.3045 4.68417 16.2671 4.61822 16.2296L4.61822 16.2296L4.61819 16.2296C4.58651 16.2116 4.55483 16.1936 4.52281 16.1763C4.50326 16.1658 4.48342 16.1559 4.45919 16.1439L4.41259 16.1205C4.41259 16.1652 4.41208 16.2083 4.41159 16.2502C4.41056 16.3383 4.40959 16.4212 4.41351 16.504C4.4246 16.7453 4.22864 16.8819 4.05833 16.8812C3.8522 16.8803 3.7087 16.7274 3.70685 16.5013C3.70606 16.4194 3.70624 16.3377 3.70643 16.2487V16.2486V16.2486L3.70662 16.1178L3.6266 16.1615C3.57252 16.1912 3.52267 16.2185 3.4723 16.245C3.45479 16.2541 3.43738 16.2636 3.41996 16.2731C3.36726 16.3018 3.31446 16.3305 3.25854 16.3507C3.0947 16.4097 2.917 16.3348 2.83404 16.1801C2.76009 16.0423 2.79983 15.8498 2.93386 15.7611C3.02042 15.7038 3.11154 15.6531 3.20865 15.599L3.20866 15.599C3.2531 15.5743 3.2988 15.5489 3.34589 15.5218C3.30996 15.5012 3.27469 15.4815 3.24005 15.4621L3.24005 15.4621C3.16195 15.4185 3.08708 15.3766 3.01521 15.3305C2.95582 15.2925 2.89366 15.248 2.85483 15.1921C2.76263 15.0589 2.78297 14.898 2.89158 14.7816C3.00019 14.6652 3.16587 14.6368 3.32209 14.7157C3.40853 14.7593 3.49288 14.8068 3.58253 14.8573L3.58255 14.8573L3.58258 14.8573C3.62257 14.8799 3.66362 14.903 3.70639 14.9267L3.70631 14.8081C3.70621 14.7157 3.70613 14.6291 3.70662 14.5427C3.70777 14.3157 3.84781 14.1644 4.05764 14.1628C4.26423 14.1612 4.40912 14.3143 4.41212 14.5389C4.41321 14.6194 4.41294 14.7 4.41265 14.7884C4.4125 14.8317 4.41235 14.877 4.41235 14.9251C4.44374 14.908 4.47333 14.8913 4.50186 14.8752L4.50186 14.8752C4.56345 14.8405 4.62005 14.8087 4.6788 14.7812C4.69481 14.7737 4.71089 14.7659 4.72705 14.7581L4.72707 14.7581C4.79901 14.7232 4.87247 14.6876 4.94871 14.6772C5.10954 14.6553 5.25166 14.7575 5.30365 14.9036C5.35311 15.0429 5.30481 15.2024 5.17401 15.2878C5.08911 15.3431 5.00052 15.3929 4.90615 15.446L4.90614 15.446C4.86284 15.4704 4.81832 15.4954 4.77239 15.522C4.81089 15.5438 4.84872 15.565 4.88598 15.5859L4.88608 15.586ZM11.8309 14.801C11.7302 14.6763 11.5569 14.6329 11.4083 14.7051C11.3178 14.749 11.2299 14.7976 11.1351 14.8499C11.0914 14.8741 11.0461 14.8991 10.9985 14.9248C10.9985 14.8784 10.9991 14.8346 10.9996 14.7926V14.7925V14.7925C11.0008 14.6974 11.0018 14.6117 10.9962 14.5263C10.9916 14.4579 10.9768 14.3839 10.9436 14.3247C10.8705 14.1947 10.7009 14.135 10.5556 14.1732C10.404 14.2134 10.2977 14.3415 10.2924 14.5013C10.2893 14.5942 10.29 14.6873 10.2908 14.7861C10.2911 14.8314 10.2914 14.8779 10.2914 14.9261C10.2462 14.901 10.2034 14.877 10.1621 14.8538L10.162 14.8538C10.0814 14.8086 10.0066 14.7667 9.93116 14.7261C9.7835 14.6465 9.63445 14.6541 9.52098 14.7435C9.32225 14.9004 9.33958 15.1748 9.55981 15.3089C9.6407 15.3582 9.72388 15.404 9.81089 15.4518C9.85089 15.4738 9.8917 15.4962 9.93347 15.5197C9.88794 15.5461 9.84389 15.571 9.8011 15.5952C9.70621 15.6488 9.61744 15.699 9.53208 15.7543C9.40729 15.8354 9.36454 15.9577 9.39227 16.0983C9.41954 16.2359 9.51151 16.3195 9.64947 16.3591C9.78562 16.3981 9.89458 16.3375 10.0039 16.2767L10.0194 16.2681C10.079 16.2352 10.1381 16.202 10.1983 16.1683L10.1984 16.1683L10.2799 16.1226C10.2828 16.1311 10.2848 16.1367 10.2863 16.1406L10.2863 16.1407C10.2884 16.1463 10.2891 16.1483 10.2891 16.1503C10.2893 16.1858 10.289 16.2212 10.2886 16.2567C10.2877 16.3417 10.2869 16.4267 10.2937 16.511C10.2995 16.5828 10.3157 16.6605 10.352 16.7215C10.4303 16.8525 10.5844 16.9052 10.7307 16.8688C10.8851 16.8301 10.9872 16.7153 10.9946 16.5559C10.9991 16.4604 10.9981 16.3647 10.997 16.2618L10.997 16.2616C10.9965 16.2144 10.996 16.1657 10.996 16.1148C11.0375 16.1377 11.0764 16.1603 11.1138 16.182L11.1138 16.182C11.1955 16.2295 11.2701 16.2729 11.3493 16.3059C11.433 16.3407 11.5324 16.37 11.6197 16.3599C11.7685 16.3425 11.8686 16.2471 11.8993 16.0987C11.9296 15.9521 11.8813 15.831 11.7521 15.7492C11.6677 15.6956 11.5803 15.6463 11.4892 15.5947C11.4465 15.5705 11.4029 15.5459 11.3584 15.5201C11.4002 15.4965 11.441 15.4739 11.4808 15.4518C11.5661 15.4043 11.6473 15.3592 11.7269 15.3118C11.9234 15.195 11.9677 14.9704 11.8309 14.801ZM8.18946 15.5912C8.27782 15.6404 8.36339 15.688 8.44624 15.7397C8.64451 15.8635 8.67363 16.1091 8.51418 16.2698C8.39794 16.3864 8.22717 16.4032 8.06079 16.3129C7.98854 16.2736 7.91676 16.2335 7.84032 16.1908C7.79671 16.1665 7.75158 16.1413 7.70399 16.1149C7.70399 16.1654 7.70421 16.2133 7.70441 16.2593C7.70485 16.3561 7.70525 16.4449 7.70353 16.5335C7.6996 16.7339 7.55378 16.8779 7.35459 16.8812C7.16648 16.8846 7.0105 16.7418 7.00079 16.5476C6.99606 16.4543 6.99715 16.3608 6.99831 16.2607C6.99885 16.2142 6.99941 16.1664 6.99941 16.1165C6.95834 16.1394 6.91894 16.1616 6.88061 16.1832C6.79215 16.2332 6.70945 16.2799 6.62528 16.3239C6.46976 16.405 6.29598 16.3782 6.18414 16.2606C6.07807 16.1493 6.05611 15.9761 6.1467 15.849C6.18163 15.8001 6.23548 15.7624 6.28738 15.726C6.29454 15.721 6.30166 15.7161 6.30869 15.7111C6.34226 15.6875 6.37906 15.6682 6.41587 15.649C6.4338 15.6396 6.45174 15.6302 6.4693 15.6203C6.51967 15.592 6.56982 15.5634 6.63753 15.5247C6.61734 15.5125 6.59809 15.5008 6.57946 15.4894C6.5373 15.4637 6.49832 15.44 6.4589 15.4172C6.43102 15.401 6.40264 15.3856 6.37424 15.3701C6.34215 15.3526 6.31004 15.3351 6.27865 15.3166C6.09771 15.2098 6.03809 15.006 6.13838 14.8408C6.2396 14.6739 6.44804 14.6243 6.63522 14.7242C6.69215 14.7546 6.74834 14.7866 6.80453 14.8186C6.84277 14.8403 6.881 14.862 6.91945 14.8833C6.93359 14.8911 6.94877 14.8974 6.96766 14.9052C6.97687 14.9091 6.98697 14.9133 6.99825 14.9182C6.99825 14.8749 6.9982 14.833 6.99815 14.7919C6.99805 14.7123 6.99795 14.6361 6.99825 14.5597C6.99918 14.3192 7.14106 14.1617 7.35505 14.163C7.56534 14.1644 7.7033 14.3186 7.70399 14.5537C7.70414 14.6297 7.70409 14.7058 7.70404 14.789C7.70402 14.8334 7.70399 14.8798 7.70399 14.9293C7.73563 14.9116 7.76558 14.8941 7.79456 14.8772C7.85765 14.8404 7.91616 14.8062 7.9776 14.778C7.98734 14.7736 7.99714 14.769 8.00697 14.7645C8.08855 14.7266 8.17311 14.6873 8.25952 14.6779C8.41666 14.6607 8.55254 14.7658 8.59899 14.9083C8.64636 15.0543 8.59691 15.2058 8.4638 15.2905C8.37912 15.3443 8.29155 15.3938 8.19943 15.4459C8.15605 15.4705 8.11167 15.4956 8.0661 15.522C8.10781 15.5458 8.14893 15.5687 8.18946 15.5912Z" fill="#F40C44"/>
<path d="M14.8868 10.9723C14.7689 9.03991 13.2927 6.94725 11.5309 6.30408C11.3893 6.25246 11.17 6.2757 11.0355 6.34855C9.67486 7.08447 8.32693 7.08738 6.96584 6.34989C6.83135 6.27704 6.61251 6.25067 6.47224 6.30229C4.70396 6.95485 3.23148 9.03924 3.11271 10.9723C3.09815 11.2081 3.29272 11.4068 3.53698 11.4068H14.4625C14.7068 11.4066 14.9013 11.2081 14.8868 10.9723Z" fill="#F40C44"/>
<path d="M9.00983 6.26912C10.8065 6.26487 12.2573 4.86567 12.2545 3.14019C12.2515 1.38655 10.785 -0.012211 8.96292 8.03882e-05C7.1787 0.0121483 5.72794 1.43549 5.74366 3.15874C5.7596 4.8907 7.21152 6.27359 9.00983 6.26912Z" fill="#F40C44"/>
<script xmlns=""/></svg>