<svg xmlns="http://www.w3.org/2000/svg"  viewBox="0 0 30 30" width="30px" height="30px"><path fill="#dbf2ff" d="M2.5 28.5L2.5 11.279 14.998 3.587 27.5 11.279 27.5 28.5z"/><path fill="#7496c4" d="M14.998,4.174L27,11.559V28H3V11.559L14.998,4.174 M14.998,3L2,11v18h26V11L14.998,3L14.998,3z"/><path fill="#b5ddf5" d="M3 25H27V28H3z"/><path fill="#f78f8f" d="M14.998 4.644L1.5 12.951 1.5 9.895 14.998 1.587 28.5 9.895 28.5 12.952z"/><path fill="#c74343" d="M14.998,2.174l13.002,8v1.883L15.522,4.379l-0.524-0.322l-0.524,0.323L2,12.056v-1.882 L14.998,2.174 M14.998,1L1,9.615v4.231l13.998-8.615L29,13.846V9.615L14.998,1L14.998,1z"/><g><path fill="#ffc49c" d="M11.5 16.5H18.5V28.5H11.5z"/><path fill="#a16a4a" d="M18,17v11h-6V17H18 M19,16h-8v13h8V16L19,16z"/></g><path fill="#a16a4a" d="M16.5 22A0.5 0.5 0 1 0 16.5 23A0.5 0.5 0 1 0 16.5 22Z"/></svg>