<svg width="52" height="48" viewBox="0 0 52 48" fill="none" xmlns="http://www.w3.org/2000/svg">
<g clip-path="url(#clip0_7795_5482)">
<path d="M11.5008 5.11725C-3.55365 13.3902 -3.06137 37.0197 8.52256 43.649C20.1065 50.2783 38.9054 48.5584 44.2897 43.649C53.6676 35.1016 57.2274 14.1799 38.9392 4.45249C24.977 -2.97271 14.8114 3.29983 11.5039 5.1142L11.5008 5.11725Z" fill="#FFBD3B"/>
<path d="M48.8433 37.6933C47.548 38.7301 46.1542 39.6449 44.6374 40.3951C36.6532 44.3348 25.7124 45.7253 17.4205 43.1547C10.2302 40.9256 3.60289 35.6015 2.35374 28.0268C1.54455 23.1296 3.02139 15.6769 4.94743 10.7705C-3.03056 21.2176 -1.01222 38.1904 8.5226 43.6487C20.1065 50.278 38.9054 48.5582 44.2897 43.6487C46.0465 42.0478 47.6003 40.0108 48.8433 37.6933Z" fill="#FF971B"/>
<path d="M15.9837 18.3507C10.1471 21.5068 6.17195 32.0545 9.88866 36.3267C13.6054 40.5988 20.7434 35.5887 26.2415 36.473C31.7427 37.3573 34.2688 40.8946 39.4746 38.9766C44.6774 37.0616 40.3669 22.6198 35.3118 18.9362C31.3305 16.0332 20.8911 15.6947 15.9837 18.3476V18.3507Z" fill="#3F1718"/>
<path d="M15.9837 18.3515C15.2268 18.7601 14.5007 19.2968 13.8176 19.925C18.2604 20.8154 28.0383 22.3279 37.0624 20.669C36.4994 19.9677 35.9086 19.3792 35.3087 18.9401C31.3274 16.0371 20.888 15.6986 15.9806 18.3515H15.9837Z" fill="white"/>
<path d="M25.6476 30.2863C16.7097 29.5148 11.3285 32.0153 8.67017 33.8418C8.89477 34.7932 9.29167 35.641 9.88548 36.3271C13.6022 40.5992 20.7402 35.5891 26.2384 36.4734C31.7396 37.3578 34.2656 40.895 39.4714 38.977C40.7421 38.5104 41.4436 37.2968 41.7082 35.6745C38.3946 33.4759 33.0749 30.9236 25.6445 30.2832L25.6476 30.2863Z" fill="#FF5C57"/>
<path d="M17.965 0.906133C17.8604 0.372494 17.2789 0.0126697 16.762 0.000472205C15.7497 -0.0208733 15.1221 0.686579 14.2698 1.083C13.5345 1.42147 12.5868 1.66237 11.7776 1.68982C11.0515 1.71421 10.5223 2.68086 11.1408 3.21145C12.2945 4.19944 13.6791 4.59281 15.199 4.1659C16.7127 3.73899 18.3096 2.66866 17.965 0.906133Z" fill="#3F1718"/>
<path d="M21.3619 8.96485C20.0235 7.21452 17.4667 6.95532 15.4484 7.62008C13.4516 8.27875 12.0516 9.83087 11.3532 11.7611C10.9071 12.99 12.9224 13.8469 13.4977 12.6576C14.0484 11.5202 14.9069 10.5566 16.1652 10.1937C17.5805 9.78208 18.6697 10.4804 20.0142 10.7091C20.9034 10.8616 22.0664 9.88271 21.3649 8.9679L21.3619 8.96485Z" fill="#3F1718"/>
<path d="M32.7643 0.906133C32.8689 0.369445 33.4474 0.00962029 33.9643 0.000472205C34.9765 -0.0208733 35.6042 0.686579 36.4564 1.083C37.1918 1.42147 38.1394 1.66237 38.9486 1.68982C39.6747 1.71421 40.2039 2.68086 39.5855 3.21145C38.4317 4.19944 37.0472 4.59281 35.5273 4.1659C34.0135 3.73899 32.4167 2.66866 32.7613 0.906133H32.7643Z" fill="#3F1718"/>
<path d="M29.3674 8.96485C30.7058 7.21452 33.2626 6.95532 35.2809 7.62008C37.2777 8.27875 38.6776 9.83087 39.376 11.7611C39.8222 12.99 37.8069 13.8469 37.2316 12.6576C36.6808 11.5202 35.8224 10.5566 34.564 10.1937C33.1487 9.78208 32.0596 10.4804 30.715 10.7091C29.8258 10.8616 28.6628 9.88271 29.3643 8.9679L29.3674 8.96485Z" fill="#3F1718"/>
<path d="M40.8622 14.295C40.5022 14.1334 40.1207 14.475 40.2438 14.85C40.6807 16.1552 41.4437 18.6282 41.9268 21.2872C42.5975 24.9861 53.6091 20.0278 40.8622 14.295Z" fill="#82D0F5"/>
<path d="M41.7545 12.4961C41.4222 12.6791 41.4653 13.1609 41.8253 13.2768C42.8745 13.6153 44.6682 14.2465 46.4496 15.1064C49.0556 16.3658 50.9355 7.4525 41.7576 12.4961H41.7545Z" fill="#82D0F5"/>
<path d="M46.4402 19.4669C46.4156 19.3876 46.3756 19.3053 46.3448 19.2291C46.311 19.1528 46.2741 19.0797 46.231 19.0065C46.1541 18.8814 46.0618 18.7442 45.9356 18.6649C45.9018 18.6436 45.8649 18.6253 45.831 18.607C45.7603 18.5735 45.6956 18.543 45.6157 18.543C45.5234 18.543 45.4341 18.5796 45.3634 18.6405C45.2588 18.7381 45.2434 18.8601 45.2464 18.9912C45.2464 19.0766 45.2526 19.1589 45.2803 19.2413C45.308 19.3267 45.3264 19.4181 45.3418 19.5066C45.3418 19.531 45.348 19.5554 45.348 19.5798C45.348 19.6499 45.3541 19.717 45.3787 19.7841C45.388 19.8146 45.3972 19.842 45.4064 19.8725C45.4434 19.9975 45.5357 20.1286 45.6526 20.1896C45.7603 20.2476 45.871 20.2689 45.9941 20.2537C46.1049 20.2384 46.2218 20.1927 46.3018 20.1073C46.4002 20.0006 46.4495 19.8786 46.4587 19.7322C46.4648 19.6468 46.4679 19.5523 46.4433 19.4669H46.4402Z" fill="#CEFFF5"/>
<path d="M47.5326 11.9964C47.5326 11.9964 47.5265 11.9811 47.5234 11.972C47.4926 11.8744 47.4619 11.8043 47.388 11.7311C47.3203 11.6609 47.2403 11.6243 47.1542 11.5786C47.0711 11.5359 46.985 11.481 46.8988 11.4566C46.8127 11.4322 46.7111 11.4261 46.6219 11.417C46.5788 11.4231 46.5358 11.4261 46.4927 11.4322C46.4527 11.4475 46.4127 11.4658 46.3727 11.481C46.3389 11.5054 46.305 11.5298 46.2742 11.5573C46.2281 11.6 46.1943 11.6518 46.1727 11.7097C46.1512 11.7463 46.1389 11.786 46.1389 11.8287C46.1266 11.8713 46.1266 11.911 46.1389 11.9537C46.1389 11.9964 46.1481 12.0391 46.1696 12.0787C46.1881 12.1397 46.2219 12.1915 46.2712 12.2373C46.3389 12.2983 46.4096 12.3684 46.4865 12.4141C46.5635 12.4599 46.665 12.4873 46.7511 12.5209C46.8404 12.5544 46.9204 12.5879 47.0219 12.5879C47.1327 12.5879 47.1942 12.5605 47.2926 12.5178C47.2988 12.5148 47.308 12.5117 47.3142 12.5087C47.3296 12.5026 47.3449 12.4965 47.3603 12.4904C47.388 12.469 47.4157 12.4477 47.4434 12.4294C47.4834 12.3928 47.5111 12.3531 47.5265 12.3044C47.5449 12.2739 47.5542 12.2434 47.5542 12.2068C47.5665 12.1549 47.5665 12.1031 47.548 12.0513L47.5326 12.0025V11.9964Z" fill="#CEFFF5"/>
<path d="M10.9224 14.295C11.2824 14.1334 11.6639 14.475 11.5408 14.85C11.1039 16.1552 10.3409 18.6282 9.86091 21.2872C9.19019 24.9861 -1.82147 20.0278 10.9255 14.295H10.9224Z" fill="#82D0F5"/>
<path d="M10.0333 12.4961C10.3656 12.6791 10.3225 13.1609 9.96255 13.2768C8.91338 13.6153 7.11964 14.2465 5.33821 15.1064C2.73221 16.3658 0.852319 7.4525 10.0302 12.4961H10.0333Z" fill="#82D0F5"/>
<path d="M5.34433 19.4669C5.36894 19.3876 5.40894 19.3053 5.43971 19.2291C5.47355 19.1528 5.51047 19.0797 5.55355 19.0065C5.63047 18.8814 5.72277 18.7442 5.84891 18.6649C5.88276 18.6436 5.91968 18.6253 5.95352 18.607C6.02429 18.5735 6.0889 18.543 6.1689 18.543C6.2612 18.543 6.35042 18.5796 6.42119 18.6405C6.5258 18.7381 6.54118 18.8601 6.5381 18.9912C6.5381 19.0766 6.53195 19.1589 6.50426 19.2413C6.47657 19.3267 6.45811 19.4181 6.44273 19.5066C6.44273 19.531 6.43657 19.5554 6.43657 19.5798C6.43657 19.6499 6.43042 19.717 6.4058 19.7841C6.39657 19.8146 6.38734 19.842 6.37811 19.8725C6.34119 19.9975 6.24889 20.1286 6.13198 20.1896C6.02429 20.2476 5.91353 20.2689 5.79046 20.2537C5.67969 20.2384 5.56278 20.1927 5.48278 20.1073C5.38433 20.0006 5.3351 19.8786 5.32587 19.7322C5.31972 19.6468 5.31664 19.5523 5.34125 19.4669H5.34433Z" fill="#CEFFF5"/>
<path d="M4.25511 11.9964C4.25511 11.9964 4.26127 11.9811 4.26435 11.972C4.29511 11.8744 4.32588 11.8043 4.39972 11.7311C4.46741 11.6609 4.54741 11.6243 4.63048 11.5786C4.71355 11.5359 4.7997 11.481 4.88585 11.4566C4.972 11.4322 5.07353 11.4261 5.16275 11.417C5.20583 11.4231 5.2489 11.4261 5.29198 11.4322C5.33197 11.4475 5.37197 11.4658 5.41197 11.481C5.44581 11.5054 5.47966 11.5298 5.51043 11.5573C5.55658 11.6 5.59042 11.6518 5.61196 11.7097C5.63349 11.7463 5.6458 11.786 5.6458 11.8287C5.65811 11.8713 5.65811 11.911 5.6458 11.9537C5.6458 11.9964 5.63657 12.0391 5.61503 12.0787C5.59657 12.1397 5.56273 12.1915 5.5135 12.2373C5.44581 12.2983 5.37505 12.3684 5.29813 12.4141C5.21813 12.4599 5.11968 12.4873 5.03353 12.5209C4.94431 12.5544 4.86431 12.5879 4.76278 12.5879C4.65201 12.5879 4.59048 12.5605 4.49202 12.5178C4.48587 12.5148 4.47664 12.5117 4.47049 12.5087C4.4551 12.5026 4.43972 12.4965 4.42434 12.4904C4.39665 12.469 4.36895 12.4477 4.34126 12.4294C4.30127 12.3928 4.27358 12.3531 4.25819 12.3044C4.23973 12.2739 4.2305 12.2434 4.2305 12.2068C4.21819 12.1549 4.21819 12.1031 4.23665 12.0513L4.25204 12.0025L4.25511 11.9964Z" fill="#CEFFF5"/>
<path d="M27.9399 39.0197C27.5984 38.4159 26.9461 38.2177 26.3092 38.1353C25.8569 38.0744 25.4539 38.0927 25.0016 38.1658C24.6416 38.2207 24.2816 38.3458 23.9647 38.5257C23.5832 38.7422 23.1986 39.0288 23.0079 39.4283C22.814 39.8369 22.8048 40.2699 23.094 40.6419C23.374 41.0017 23.8078 41.1237 24.254 41.0322C24.457 40.9926 24.6293 40.9194 24.8232 40.8371C24.7278 40.8767 24.6324 40.9164 24.5339 40.9591C24.7278 40.8828 24.9308 40.831 25.1339 40.7913C25.2724 40.7791 25.4077 40.7791 25.5462 40.7852C25.6631 40.8096 25.7769 40.8432 25.8877 40.8828C26.1554 41.0048 26.4446 41.1237 26.7369 41.0932C26.9892 41.0932 27.223 41.0292 27.4384 40.9042C27.6476 40.7822 27.8137 40.6175 27.9368 40.4102C28.1922 39.9802 28.1799 39.4527 27.9368 39.0197H27.9399Z" fill="#FF971B"/>
<path d="M28.4507 3.76582C27.4908 1.738 23.8233 2.58877 22.8388 4.14699C22.4172 4.81176 22.8449 5.63813 23.5433 5.86074C24.2694 6.09249 25.0386 5.98576 25.7863 6.05285C26.6785 6.13213 27.5431 6.10468 28.2292 5.46737C28.7184 5.01301 28.7153 4.32386 28.4507 3.76582Z" fill="#FFDB5A"/>
<path d="M41.5391 36.4491C39.3639 37.5834 37.0071 38.2604 34.6565 37.7298C32.6043 37.2663 30.8628 35.9307 28.866 35.2629C26.4139 34.4426 23.7463 34.6805 21.1742 34.9518C18.9436 35.1897 16.3222 35.2995 14.873 33.6071C14.3284 32.9728 14.0546 32.1312 14.0761 31.3018C11.6578 32.0397 9.87947 33.0124 8.66724 33.8449C8.89184 34.7963 9.28874 35.644 9.88255 36.3302C13.5993 40.6023 20.7373 35.5922 26.2354 36.4765C31.7366 37.3608 34.2626 40.8981 39.4685 38.9801C40.5269 38.5897 41.1884 37.681 41.533 36.4521L41.5391 36.4491Z" fill="#DF373A"/>
</g>
<defs>
<clipPath id="clip0_7795_5482">
<rect width="52" height="48" fill="white"/>
</clipPath>
</defs>
</svg>
