<svg width="27" height="27" viewBox="0 0 27 27" fill="none" xmlns="http://www.w3.org/2000/svg">
<rect width="27" height="27" rx="13.5" fill="white"/>
<path d="M13.5 2C7.15915 2 2 7.15915 2 13.5C2 19.8409 7.15915 25 13.5 25C19.8409 25 25 19.8409 25 13.5C25 7.15915 19.8409 2 13.5 2ZM19.9273 10.4737L12.5777 17.7657C12.1454 18.198 11.4536 18.2268 10.9925 17.7945L7.1015 14.2494C6.64035 13.817 6.61153 13.0965 7.01504 12.6353C7.44737 12.1742 8.16792 12.1454 8.62907 12.5777L11.713 15.4023L18.2845 8.83083C18.7456 8.36967 19.4662 8.36967 19.9273 8.83083C20.3885 9.29198 20.3885 10.0125 19.9273 10.4737Z" fill="#FFB800"/>
</svg>
