<svg width="26" height="25" viewBox="0 0 26 25" fill="none" xmlns="http://www.w3.org/2000/svg">
<g clip-path="url(#clip0_769_3466)">
<path d="M13 0C6.10723 0 0.5 5.60723 0.5 12.5C0.5 19.3928 6.10723 25 13 25C19.8928 25 25.5 19.3928 25.5 12.5C25.5 5.60723 19.8928 0 13 0ZM18.9448 18.9655C18.8482 19.0624 18.7334 19.1393 18.6071 19.1917C18.4807 19.2441 18.3452 19.271 18.2084 19.2709C18.0716 19.271 17.9361 19.2441 17.8097 19.1917C17.6833 19.1393 17.5686 19.0624 17.472 18.9655L12.2636 13.7573C12.1666 13.6608 12.0898 13.546 12.0374 13.4196C11.985 13.2932 11.9582 13.1577 11.9584 13.0209V6.25C11.9584 5.67397 12.425 5.2084 13 5.2084C13.575 5.2084 14.0416 5.67397 14.0416 6.25V12.5896L18.9448 17.4927C19.3521 17.9001 19.3521 18.5583 18.9448 18.9655Z" fill="#FB9D2C"/>
</g>
<defs>
<clipPath id="clip0_769_3466">
<rect width="25" height="25" fill="white" transform="translate(0.5)"/>
</clipPath>
</defs>
</svg>
