<svg width="25" height="25" viewBox="0 0 25 25" fill="none" xmlns="http://www.w3.org/2000/svg">
<g clip-path="url(#clip0_776_3590)">
<path d="M12.5133 0C5.59805 0 0 5.59805 0 12.5133C0 19.4285 5.59805 25.0266 12.5133 25.0266C19.4285 25.0266 25.0266 19.4285 25.0266 12.5133C25.0266 5.59805 19.4011 0 12.5133 0ZM13.6384 18.9895C13.3091 19.2913 12.8975 19.4285 12.4035 19.4285C11.9096 19.4285 11.4979 19.2913 11.1687 18.9895C10.8394 18.6876 10.6747 18.3034 10.6747 17.8644C10.6747 17.3979 10.8394 17.0137 11.1687 16.7393C11.4979 16.4374 11.9096 16.3002 12.4035 16.3002C12.8975 16.3002 13.3091 16.4374 13.6384 16.7393C13.9677 17.0411 14.1323 17.4253 14.1323 17.8644C14.1323 18.3309 13.9677 18.715 13.6384 18.9895ZM16.5746 10.6747C16.3825 11.0863 16.0258 11.5254 15.5867 11.9645L14.5165 12.9523C14.2146 13.2542 13.9951 13.5561 13.8854 13.8579C13.7756 14.1598 13.6933 14.5439 13.6933 15.0379H11.0314C11.0314 14.1323 11.1412 13.4188 11.3333 12.8975C11.5254 12.3761 11.8821 11.9096 12.3212 11.5254C12.7877 11.1412 13.1444 10.7845 13.364 10.4552C13.6109 10.1259 13.7207 9.76914 13.7207 9.38496C13.7207 8.45195 13.3091 7.98545 12.5133 7.98545C12.1291 7.98545 11.8272 8.12266 11.6077 8.39707C11.3882 8.67148 11.251 9.02822 11.251 9.49473H8.09521C8.09521 8.25986 8.50684 7.27197 9.2752 6.58594C10.0436 5.8999 11.1412 5.54316 12.5133 5.54316C13.9128 5.54316 14.983 5.87246 15.7514 6.50361C16.5197 7.13477 16.9039 8.06777 16.9039 9.24775C16.9039 9.76914 16.7941 10.2356 16.5746 10.6747Z" fill="#00AC45"/>
</g>
<defs>
<clipPath id="clip0_776_3590">
<rect width="25" height="25" fill="white"/>
</clipPath>
</defs>
</svg>
