<svg width="32" height="31" viewBox="0 0 32 31" fill="none" xmlns="http://www.w3.org/2000/svg">
<path d="M15.9709 30.3239C12.327 30.3162 8.81366 28.9665 6.10176 26.5327C3.38987 24.0988 1.66948 20.7514 1.26917 17.1295C1.23297 16.7978 1.32968 16.4653 1.53812 16.2048C1.74655 15.9442 2.04974 15.7769 2.38129 15.7394C2.42973 15.7345 2.47429 15.7326 2.51789 15.7326C2.82927 15.7281 3.13098 15.8408 3.3633 16.0481C3.59562 16.2555 3.74162 16.5426 3.77242 16.8525C4.10559 19.858 5.53346 22.6357 7.78367 24.6558C10.0339 26.6758 12.9489 27.7969 15.9729 27.8051C16.4341 27.8048 16.8949 27.7789 17.3533 27.7276C19.7717 27.46 22.0564 26.4813 23.9186 24.9153C25.7808 23.3493 27.1369 21.2663 27.8153 18.9297C28.4937 16.593 28.4641 14.1077 27.7301 11.7879C26.9962 9.46811 25.5909 7.41802 23.6919 5.89686C21.5245 4.14265 18.8193 3.18822 16.031 3.19405C15.5694 3.19419 15.1082 3.22007 14.6495 3.27155C12.5365 3.49628 10.5186 4.26808 8.79495 5.51079C7.07129 6.75351 5.70145 8.42419 4.8206 10.358C4.71911 10.5763 4.55749 10.7611 4.35468 10.8908C4.15187 11.0205 3.91629 11.0897 3.67554 11.0903C3.46433 11.0902 3.25654 11.037 3.0713 10.9355C2.88605 10.8341 2.72929 10.6877 2.61545 10.5098C2.50161 10.3319 2.43433 10.1282 2.41983 9.91747C2.40532 9.70676 2.44403 9.49578 2.53242 9.30396C3.5932 6.97447 5.24312 4.96188 7.31932 3.46483C9.39552 1.96777 11.8262 1.03802 14.3715 0.767332C14.9216 0.706879 15.4746 0.676479 16.0281 0.67627C19.6725 0.683268 23.1865 2.0326 25.8991 4.46651C28.6116 6.90042 30.3324 10.2483 30.7327 13.8706C31.1601 17.7768 30.0208 21.693 27.5648 24.7603C25.1087 27.8277 21.5364 29.7957 17.6314 30.2328C17.0806 30.2933 16.5269 30.3237 15.9729 30.3239H15.9709Z" fill="#0C93F4"/>
<path d="M3.66781 11.0923C3.36502 11.0926 3.0723 10.9835 2.84343 10.7853C2.61456 10.587 2.46492 10.3129 2.422 10.0131L1.67606 4.87293C1.65208 4.70923 1.66064 4.5424 1.70125 4.38202C1.74186 4.22163 1.81372 4.07084 1.91271 3.93827C2.01171 3.80571 2.13589 3.69399 2.27814 3.60951C2.42039 3.52503 2.57792 3.46945 2.74169 3.44596C2.80072 3.43733 2.86028 3.4328 2.91994 3.43239C3.2232 3.43062 3.51681 3.53892 3.74627 3.73721C3.97574 3.93549 4.12547 4.2103 4.16769 4.51061L4.71406 8.26452L8.08047 7.39943C8.40407 7.31618 8.74749 7.3649 9.03517 7.53485C9.32285 7.70481 9.53124 7.98209 9.61448 8.30569C9.69773 8.62929 9.64901 8.97271 9.47906 9.26039C9.3091 9.54808 9.03182 9.75646 8.70822 9.83971L3.98072 11.0526C3.87875 11.0784 3.77396 11.0914 3.66878 11.0913L3.66781 11.0923ZM20.8428 20.6345C20.5569 20.6338 20.2797 20.5365 20.0562 20.3584L15.2124 16.4834C15.0647 16.3657 14.9456 16.2161 14.8639 16.0458C14.7822 15.8755 14.74 15.689 14.7406 15.5001V7.75011C14.7406 7.41611 14.8733 7.09578 15.1095 6.8596C15.3457 6.62342 15.666 6.49074 16 6.49074C16.334 6.49074 16.6543 6.62342 16.8905 6.8596C17.1267 7.09578 17.2594 7.41611 17.2594 7.75011V14.8946L21.6304 18.3918C21.8341 18.5549 21.9821 18.7771 22.0541 19.028C22.126 19.2788 22.1182 19.5457 22.0319 19.7919C21.9455 20.0382 21.7848 20.2515 21.572 20.4024C21.3591 20.5533 21.1037 20.6344 20.8428 20.6345Z" fill="#0C93F4"/>
</svg>
