<svg width="25" height="25" viewBox="0 0 25 25" fill="none" xmlns="http://www.w3.org/2000/svg">
<g clip-path="url(#clip0_776_3570)">
<path d="M12.5 0C5.59375 0 0 5.59375 0 12.5C0 19.4062 5.59375 25 12.5 25C19.4062 25 25 19.4062 25 12.5C25 5.59375 19.4062 0 12.5 0ZM11.125 15.625C11.125 16.4062 10.5 17 9.75 17C8.96875 17 8.375 16.375 8.375 15.625V9.375C8.34375 8.625 8.96875 8 9.71875 8C10.5 8 11.125 8.625 11.125 9.375V15.625ZM16.6562 15.625C16.6562 16.4062 16.0312 17 15.2812 17C14.5 17 13.9062 16.375 13.9062 15.625V9.375C13.875 8.625 14.5 8 15.25 8C16.0312 8 16.6562 8.625 16.6562 9.375V15.625Z" fill="#2486FF"/>
</g>
<defs>
<clipPath id="clip0_776_3570">
<rect width="25" height="25" fill="white"/>
</clipPath>
</defs>
</svg>
