<svg width="17" height="17" viewBox="0 0 17 17" fill="none" xmlns="http://www.w3.org/2000/svg">
<path d="M8.49998 0C3.80557 0 0 3.80557 0 8.49998C0 13.1944 3.80557 17 8.49998 17C13.1944 17 17 13.1944 17 8.49998C16.995 3.80767 13.1923 0.00501604 8.49998 0ZM12.0797 8.77081C12.0208 8.88886 11.9251 8.98455 11.8071 9.04339V9.04641L6.94995 11.475C6.64999 11.6249 6.28535 11.5032 6.13543 11.2033C6.09281 11.118 6.07088 11.0239 6.0714 10.9286V6.07144C6.07126 5.73611 6.34294 5.46417 6.67827 5.464C6.77258 5.46395 6.86559 5.48588 6.94995 5.52803L11.8071 7.95661C12.1072 8.10617 12.2292 8.4707 12.0797 8.77081Z" fill="#EC3862"/>
</svg>
