<svg xmlns="http://www.w3.org/2000/svg" width="44" height="12" viewBox="0 0 44 12" fill="none">
    <path
        d="M12.6518 9.56374C10.9434 9.57374 9.23566 9.56541 7.52725 9.5754C7.31299 9.57623 7.22757 9.52045 7.23469 9.24986C7.25035 8.63625 7.25035 8.0218 7.23397 7.40819C7.22614 7.12261 7.29875 7.04019 7.54789 7.04185C9.22925 7.05518 10.9106 7.04935 12.5927 7.04851C12.6874 7.04851 12.782 7.03936 12.8895 7.03353C12.8895 6.2484 12.8895 5.49242 12.8895 4.67566C12.7514 4.67566 12.6375 4.67566 12.5243 4.67566C10.8608 4.67566 9.19722 4.67066 7.53294 4.68315C7.29306 4.68481 7.22614 4.60072 7.23469 4.32847C7.25106 3.80894 7.25177 3.28774 7.23326 2.76821C7.2233 2.4868 7.30658 2.42019 7.53793 2.42186C9.21929 2.43268 10.9006 2.42769 12.5827 2.42852C12.6866 2.42852 12.7913 2.42852 12.9137 2.42852C12.9137 1.60676 12.9137 0.822469 12.9137 0.0240228C12.8247 0.015697 12.7557 0.00237567 12.6866 0.00237567C10.0265 0.00237567 7.36637 0.00487342 4.70624 -0.00012207C4.52544 -0.00012207 4.4571 0.0564935 4.4571 0.278793C4.46066 4.08702 4.45995 7.89608 4.45568 11.7043C4.45568 11.9183 4.51049 11.9916 4.69841 11.9916C7.36709 11.9866 10.0365 11.9874 12.7059 11.9957C12.9123 11.9965 12.9621 11.91 12.9579 11.6868C12.9465 11.094 12.9401 10.5004 12.9586 9.9076C12.9657 9.62119 12.8788 9.56208 12.6518 9.56374Z"
        fill="#F40C44" />
    <path
        d="M37.0208 5.64317C36.3595 5.33595 35.664 5.11864 34.9835 4.86387C34.2774 4.59911 33.5641 4.35766 32.8672 4.06543C32.5269 3.92305 32.2942 3.62832 32.3155 3.18039C32.3355 2.74911 32.5939 2.52348 32.9156 2.35697C33.3093 2.15299 33.7278 2.16298 34.1464 2.18546C34.9294 2.22792 35.5088 2.62173 35.6918 3.52175C35.7074 3.59835 35.8242 3.70409 35.8954 3.70575C36.6335 3.71907 37.3724 3.71075 38.1106 3.71741C38.275 3.71907 38.3298 3.65413 38.3192 3.47429C38.2622 2.49101 37.9034 1.67425 37.213 1.04898C36.5524 0.450356 35.7701 0.160618 34.9358 0.0640382C33.6253 -0.0874916 32.3419 -7.05675e-05 31.1531 0.726773C29.3372 1.8366 29.0432 4.75564 30.988 6.06529C31.5204 6.42413 32.1184 6.68306 32.7099 6.90952C33.5983 7.25005 34.5101 7.51564 35.4085 7.82703C35.7701 7.95275 35.9964 8.2275 36.0149 8.66544C36.0342 9.11254 35.8349 9.42309 35.4754 9.59127C34.6504 9.97842 33.8111 9.97676 32.9896 9.59294C32.5262 9.37563 32.2685 8.94019 32.1625 8.39985C32.1333 8.24915 32.1134 8.09679 32.0885 7.93776C31.2072 7.93776 30.3402 7.93776 29.4582 7.93776C29.4582 8.02685 29.4525 8.09429 29.4589 8.16006C29.6148 9.83522 30.3167 11.1549 31.9667 11.686C32.9726 12.0099 33.999 12.0266 35.0326 11.8984C35.8085 11.8026 36.5581 11.6078 37.2372 11.1657C38.2594 10.5013 38.7498 9.50551 38.6822 8.1967C38.6196 6.96281 38.0287 6.11191 37.0208 5.64317Z"
        fill="#F40C44" />
    <path
        d="M27.1156 0.00404891C24.8213 0.00404891 22.5271 0.00821181 20.2328 -0.000114003C20.005 -0.000946584 19.9182 0.0623296 19.926 0.344575C19.9424 0.93654 19.9367 1.53017 19.9267 2.12297C19.9225 2.35193 19.9844 2.42686 20.1858 2.42436C21.0486 2.41271 21.9106 2.4202 22.7734 2.42187C22.8673 2.42187 22.9613 2.43186 23.0816 2.43935C23.0816 2.61336 23.0816 2.7574 23.0816 2.90143C23.0816 5.8138 23.0837 8.72534 23.078 11.6377C23.0773 11.895 23.1236 12.0065 23.3713 11.9999C24.091 11.9807 24.8114 11.9941 25.5317 11.9924C25.6349 11.9924 25.7382 11.9791 25.8748 11.9699C25.8748 8.7753 25.8748 5.61065 25.8748 2.41437C26.9369 2.41437 27.9641 2.41437 29.0069 2.41437C29.0069 1.60677 29.0069 0.831635 29.0069 0.00488149C28.357 0.00404891 27.7363 0.00404891 27.1156 0.00404891Z"
        fill="#F40C44" />
    <path
        d="M21.9925 9.93664C21.9925 9.77345 21.9925 9.6111 21.9925 9.42793C21.87 9.42044 21.7832 9.41045 21.6971 9.41045C20.1944 9.40962 18.6917 9.40962 17.189 9.41045C16.8395 9.41045 16.8388 9.41211 16.8388 9.01164C16.8388 6.14173 16.8395 3.27099 16.8402 0.401082C16.8402 0.270367 16.8402 0.139651 16.8402 0.000610352C15.8856 0.000610352 14.9745 0.000610352 14.0534 0.000610352C14.0534 3.99534 14.0534 7.97008 14.0534 11.9698C14.1908 11.9698 14.3054 11.9698 14.42 11.9698C15.949 11.9698 17.4787 11.9698 19.0077 11.9698C19.9146 11.9698 20.8215 11.9606 21.7284 11.9723C21.9398 11.9748 22.006 11.8965 22.0003 11.6534C21.9861 11.0806 21.9932 10.5086 21.9925 9.93664Z"
        fill="#F40C44" />
    <path
        d="M0.5 11.9483C1.42681 11.9483 2.33013 11.9483 3.24555 11.9483C3.24555 7.9527 3.24555 3.97795 3.24555 -0.00012207C2.31518 -0.00012207 1.41186 -0.00012207 0.5 -0.00012207C0.5 4.00959 0.5 7.97684 0.5 11.9483Z"
        fill="#F40C44" />
    <path
        d="M41.009 0.00134277H39.854C39.7945 0.00134277 39.7494 0.0146641 39.7179 0.0404741C39.6865 0.0671167 39.6712 0.102918 39.6712 0.147877C39.6712 0.192004 39.6865 0.226972 39.7162 0.253615C39.746 0.280258 39.7928 0.293579 39.8549 0.293579H40.2512V1.56909C40.2512 1.64153 40.2682 1.69565 40.3022 1.73228C40.3362 1.76808 40.3796 1.7864 40.434 1.7864C40.4868 1.7864 40.5302 1.76891 40.5633 1.73311C40.5965 1.69731 40.6135 1.64319 40.6135 1.56993V0.294412H41.0098C41.0719 0.294412 41.1187 0.28109 41.1493 0.254448C41.1799 0.227805 41.1961 0.192004 41.1961 0.14871C41.1961 0.104583 41.1808 0.0696145 41.1502 0.0421393C41.1187 0.0146641 41.0719 0.00134277 41.009 0.00134277Z"
        fill="#F40C44" />
    <path
        d="M43.0638 0.0413067C43.0229 0.0146641 42.9677 0.00134277 42.8988 0.00134277H42.7865C42.7185 0.00134277 42.67 0.00717084 42.6394 0.0196596C42.6088 0.0313157 42.5858 0.0529628 42.5713 0.0846009C42.5569 0.115406 42.5399 0.166194 42.5212 0.236963L42.2609 1.1986L42.0006 0.236963C41.9819 0.167027 41.9649 0.116239 41.9505 0.0846009C41.936 0.0537954 41.9131 0.0321483 41.8824 0.0196596C41.8501 0.00717084 41.8016 0.00134277 41.7336 0.00134277H41.6213C41.5516 0.00134277 41.4972 0.0146641 41.4563 0.0413067C41.4155 0.0679493 41.3951 0.119569 41.3951 0.196167V1.58575C41.3951 1.65402 41.4104 1.70397 41.4419 1.73728C41.4725 1.77058 41.5133 1.78723 41.5618 1.78723C41.612 1.78723 41.6528 1.77058 41.6834 1.73728C41.714 1.70397 41.7293 1.65318 41.7293 1.58658V0.373507L42.0168 1.4925C42.0262 1.52913 42.0364 1.56493 42.0457 1.59823C42.0551 1.63237 42.0678 1.66318 42.084 1.69065C42.1002 1.71896 42.1231 1.74144 42.1529 1.75976C42.1818 1.77807 42.2184 1.7864 42.2609 1.7864C42.317 1.7864 42.3613 1.77224 42.3927 1.74477C42.4242 1.71646 42.4463 1.68566 42.4582 1.65235C42.4701 1.61822 42.4854 1.56493 42.5041 1.4925L42.7916 0.373507V1.58575C42.7916 1.65318 42.8069 1.70314 42.8384 1.73644C42.869 1.76975 42.909 1.7864 42.9575 1.7864C43.0085 1.7864 43.0502 1.76975 43.0808 1.73644C43.1114 1.70314 43.1267 1.65235 43.1267 1.58575V0.196999C43.125 0.119569 43.1046 0.0679493 43.0638 0.0413067Z"
        fill="#F40C44" />
    <script xmlns="" />
</svg>