<svg xmlns="http://www.w3.org/2000/svg" width="21" height="21" viewBox="0 0 21 21" fill="none">
<path fill-rule="evenodd" clip-rule="evenodd" d="M17.2284 2.61806C17.2002 1.95266 16.6384 1.45656 16.0101 1.45998C15.3853 1.4634 14.8673 1.94814 14.8009 2.60878C14.7795 2.82753 14.7931 3.0486 14.7852 3.26955C14.7672 3.76577 14.7998 4.27224 14.7164 4.75686C14.2988 7.18691 12.199 8.42324 9.84692 8.08254C7.83618 7.79128 6.24634 6.25686 6.20691 4.14443C6.20276 3.92446 6.20361 3.70436 6.20459 3.48415C6.20569 3.23183 6.20679 2.97939 6.2002 2.72744C6.18213 2.01943 5.66882 1.48415 5.00342 1.45998C4.36841 1.43703 3.78284 1.94228 3.76379 2.62954C3.74121 3.43886 3.7356 4.26076 3.84485 5.05849C4.09363 6.88308 4.96729 8.35769 6.35327 9.50075C6.5155 9.6343 6.58191 9.78737 6.58069 10.0015C6.57959 10.1166 6.57959 11.0311 6.57849 11.3305C6.57739 11.9268 7.05029 11.9592 7.63342 11.9592H13.2832C13.8665 11.9592 14.3394 11.9256 14.3381 11.3292L14.3376 11.1225L14.3374 10.9726C14.3369 10.6175 14.3367 10.1618 14.3359 10.0935C14.3337 9.83571 14.4136 9.65956 14.6095 9.50075C15.6566 8.65236 16.3918 7.56679 16.8501 6.26943C17.2689 5.08498 17.2812 3.85317 17.2284 2.61806ZM10.3726 6.26821C11.5518 6.27309 12.5114 5.32863 12.5203 4.15578C12.5282 2.9811 11.5626 2.00893 10.3844 2.00698C9.21106 2.0049 8.25732 2.95546 8.25049 4.13308C8.24451 5.3069 9.19421 6.2632 10.3726 6.26821ZM4.31299 13.8342H18.938C19.2487 13.8342 19.5005 14.0861 19.5005 14.3967V14.44C19.5005 14.7268 19.2681 14.9592 18.9812 14.9592H18.938C18.006 14.9592 17.2505 15.7147 17.2505 16.6467C17.2505 17.5788 18.006 18.3342 18.938 18.3342H18.9812C19.2681 18.3342 19.5005 18.5667 19.5005 18.8535V18.8967C19.5005 19.2074 19.2487 19.4592 18.938 19.4592H4.31299C2.75964 19.4592 1.50049 18.2001 1.50049 16.6467C1.50049 15.0934 2.75964 13.8342 4.31299 13.8342ZM4.87549 16.6467C4.87549 16.3361 5.12732 16.0842 5.43799 16.0842H14.438C14.7487 16.0842 15.0005 16.3361 15.0005 16.6467C15.0005 16.9574 14.7487 17.2092 14.438 17.2092H5.43799C5.12732 17.2092 4.87549 16.9574 4.87549 16.6467Z" fill="#F40C44"/>
<script xmlns=""/></svg>