<svg width="36" height="36" viewBox="0 0 36 36" fill="none" xmlns="http://www.w3.org/2000/svg">
<path d="M21.8509 0.518186L35.4673 13.7644C35.8091 14.0969 36 14.5464 36 15.0163V36L0 0.0352887L20.5622 0C21.0452 0 21.5091 0.18573 21.8509 0.518186Z" fill="#E10422"/>
<g filter="url(#filter0_d_90_1518)">
<path d="M26.0201 17.2654C26.8105 17.2617 27.4844 16.8587 28.2195 16.6674C28.5956 16.569 28.9641 16.4018 29.3096 16.7213C29.6819 17.0667 29.5215 17.4493 29.3879 17.8319C29.1473 18.5173 28.9144 19.2063 28.6758 19.8954C28.9431 20.0347 29.1225 19.8341 29.3115 19.7431C30.417 19.2175 31.5167 18.6807 32.6145 18.1384C33.0879 17.9044 33.5519 17.7929 33.8383 18.3575C34.1056 18.8869 33.7523 19.1822 33.3056 19.3995C31.4918 20.2817 29.6762 21.1639 27.8624 22.0498C27.536 22.2096 27.2152 22.2876 26.9059 22.0331C26.5718 21.7601 26.6043 21.4165 26.7284 21.0599C27.0167 20.2223 27.303 19.3828 27.6543 18.3631C26.7952 18.6417 26.085 18.8943 25.3614 19.1023C24.8841 19.2398 24.3629 19.6131 23.9027 19.1116C23.4331 18.6008 23.8875 18.1532 24.107 17.7168C24.8784 16.1826 25.6688 14.6597 26.4535 13.1311C26.5355 12.9732 26.6138 12.8116 26.7093 12.6612C26.9479 12.2897 27.2878 12.1393 27.6983 12.3603C28.1011 12.5758 28.1851 12.9268 27.9808 13.328C27.4157 14.4424 26.8448 15.553 26.2816 16.6674C26.1823 16.8624 26.022 17.037 26.0334 17.2747C26.0067 17.2989 25.9819 17.3249 25.9551 17.349C25.9761 17.3527 25.9952 17.3565 26.0162 17.3583C26.0162 17.3267 26.0182 17.2952 26.0201 17.2654Z" fill="white"/>
<path d="M17.8223 8.70517C18.6222 7.91953 19.4279 7.13761 20.2222 6.34454C20.6078 5.96008 21.0431 5.68706 21.5109 6.13467C21.9786 6.58228 21.7037 7.0076 21.3123 7.38649C19.9281 8.72374 18.5478 10.0647 17.1751 11.4131C16.8467 11.7363 16.4973 11.9517 16.0429 11.7103C15.6 11.4763 15.6477 11.0565 15.726 10.6628C15.9761 9.41652 16.2434 8.17213 16.4992 6.92588C16.5431 6.71043 16.65 6.49127 16.4438 6.15139C15.7393 6.84973 15.0673 7.52022 14.3895 8.18699C14.2063 8.36714 14.0211 8.55101 13.8149 8.70331C13.5094 8.93176 13.1829 8.90762 12.9004 8.66431C12.5949 8.40057 12.551 8.0644 12.7591 7.72452C12.8545 7.5685 12.9996 7.43849 13.1333 7.30848C14.4602 6.01395 15.7909 4.72312 17.1178 3.42859C17.4462 3.10913 17.7803 2.78039 18.292 3.04598C18.7998 3.30972 18.712 3.74433 18.6146 4.19937C18.2996 5.66849 18.0113 7.14133 17.7116 8.61231C17.7478 8.64759 17.7841 8.67731 17.8223 8.70517Z" fill="white"/>
<path d="M26.6027 11.5451C26.6122 11.8144 26.4977 12.0299 26.2552 12.1506C25.9402 12.3066 25.6233 12.2676 25.3674 12.028C24.9226 11.6139 24.4778 11.196 24.0615 10.7539C23.8134 10.492 23.611 10.3992 23.3685 10.7335C23.3551 10.7521 23.3361 10.7651 23.3208 10.7799C22.5418 11.5117 22.5361 11.5173 23.2769 12.249C23.6473 12.6149 23.9241 13.0068 23.4601 13.4489C22.9943 13.8928 22.5876 13.6123 22.2287 13.2446C22.2134 13.2278 22.1982 13.2111 22.1791 13.1981C21.9309 13.0161 21.7266 12.5444 21.4746 12.6595C21.0851 12.836 20.793 13.2334 20.4837 13.5584C20.3195 13.7293 20.5238 13.8352 20.625 13.9355C21.0565 14.3645 21.4956 14.7861 21.929 15.2114C22.2631 15.5383 22.3681 15.9228 22.0244 16.272C21.654 16.649 21.2436 16.5487 20.8846 16.2014C20.2221 15.5588 19.5596 14.9143 18.8991 14.2679C18.5115 13.8872 18.4867 13.4842 18.8781 13.0997C20.2775 11.7271 21.6846 10.3639 23.0917 8.99878C23.4831 8.61989 23.8954 8.60317 24.2926 8.98206C24.9761 9.63583 25.65 10.3007 26.3297 10.9582C26.4939 11.1217 26.6142 11.3037 26.6027 11.5451Z" fill="white"/>
</g>
<defs>
<filter id="filter0_d_90_1518" x="10.6309" y="2.94873" width="25.2998" height="23.2489" filterUnits="userSpaceOnUse" color-interpolation-filters="sRGB">
<feFlood flood-opacity="0" result="BackgroundImageFix"/>
<feColorMatrix in="SourceAlpha" type="matrix" values="0 0 0 0 0 0 0 0 0 0 0 0 0 0 0 0 0 0 127 0" result="hardAlpha"/>
<feOffset dy="2"/>
<feGaussianBlur stdDeviation="1"/>
<feComposite in2="hardAlpha" operator="out"/>
<feColorMatrix type="matrix" values="0 0 0 0 0 0 0 0 0 0 0 0 0 0 0 0 0 0 0.05 0"/>
<feBlend mode="normal" in2="BackgroundImageFix" result="effect1_dropShadow_90_1518"/>
<feBlend mode="normal" in="SourceGraphic" in2="effect1_dropShadow_90_1518" result="shape"/>
</filter>
</defs>
</svg>
