<svg xmlns="http://www.w3.org/2000/svg" width="10" height="11" viewBox="0 0 10 11" fill="none">
    <path fill-rule="evenodd" clip-rule="evenodd" d="M0.000297587 5.44378C0.0305087 2.69902 2.27967 0.484973 5.04503 0.500077C7.7682 0.515181 10.0012 2.757 10 5.49882C9.99913 8.27778 7.76299 10.5062 4.97315 10.5C2.21804 10.4934 -0.0297399 8.23386 0.000297587 5.44378ZM1.67042 8.08751L1.5836 7.8481C1.49991 7.61807 1.46033 7.39012 1.63257 7.17779C1.68379 7.11443 1.69524 6.90123 1.64524 6.86651C1.59693 6.83306 1.54583 6.80373 1.49471 6.77438C1.45139 6.74952 1.40805 6.72464 1.3664 6.69724C1.3216 6.6679 1.2742 6.63162 1.24798 6.58665C1.2258 6.54894 1.20906 6.50766 1.19231 6.46636C1.17367 6.42039 1.15503 6.37442 1.12887 6.33336C1.0721 6.24254 1.00466 6.15885 0.927987 6.08405C0.82763 5.98805 0.785439 5.88128 0.802802 5.74395C0.813393 5.6535 0.805059 5.55611 0.733351 5.49309C0.59306 5.36965 0.555036 5.21844 0.572399 5.04066C0.576045 5.00438 0.566669 4.95264 0.542535 4.93007C0.490469 4.88151 0.433105 4.83851 0.375674 4.79546C0.353242 4.77864 0.3308 4.76182 0.308659 4.74466L0.278101 4.76653C0.0839858 6.34117 0.528297 7.70487 1.63639 8.84792C1.61896 8.74681 1.59768 8.6467 1.57641 8.54671C1.55996 8.46934 1.54353 8.39204 1.52891 8.31442C1.50182 8.17119 1.52162 8.14428 1.67042 8.08751ZM2.67867 1.86829C2.78267 1.84468 2.83632 1.77055 2.84552 1.66187C2.8491 1.60484 2.86097 1.54864 2.88077 1.49503C2.91237 1.41552 2.99033 1.37455 3.04381 1.40319C3.11636 1.44176 3.09979 1.50659 3.08424 1.56743C3.0839 1.56877 3.08356 1.57009 3.08322 1.57142C3.07901 1.58904 3.07146 1.60574 3.06388 1.62248C3.05833 1.63477 3.05276 1.64708 3.04849 1.65979C3.02986 1.71099 3.01398 1.76314 3.00092 1.81604C2.98581 1.88461 3.01429 1.92975 3.08773 1.91239C3.2216 1.88114 3.35442 1.84416 3.48569 1.80354C3.52583 1.79108 3.56497 1.77506 3.60406 1.75907C3.65594 1.73784 3.70772 1.71666 3.76158 1.70389C3.87357 1.67715 3.89302 1.69816 3.88954 1.81413C3.88729 1.8893 3.9208 1.91256 3.99025 1.90232C4.07086 1.89016 4.14532 1.85206 4.20234 1.79379C4.25936 1.73552 4.29584 1.66026 4.30625 1.57941C4.32361 1.42628 4.37865 1.37108 4.52745 1.34382C4.54788 1.34004 4.56845 1.33649 4.58907 1.33294C4.67446 1.31823 4.76047 1.30342 4.83894 1.27125C4.93134 1.23324 5.01527 1.17723 5.08583 1.1065C5.12455 1.06691 5.13046 0.986878 5.13497 0.923858C5.13805 0.879053 5.13191 0.833682 5.12527 0.78465C5.12218 0.761866 5.11899 0.738292 5.11657 0.713617C4.27973 0.690847 3.45187 0.890841 2.71773 1.29313C1.96385 1.70389 1.36657 2.27923 0.907325 3.03061C0.937077 3.01854 0.964399 3.00679 0.990189 2.9957C1.04567 2.97184 1.09407 2.95103 1.14433 2.93669C1.21256 2.91707 1.25632 2.88009 1.27715 2.81395C1.31274 2.70093 1.39678 2.65596 1.5079 2.65301C1.56279 2.65226 1.61768 2.65446 1.67233 2.65961L1.67402 2.65974C1.8371 2.67263 1.83734 2.67265 1.90829 2.52766C1.94049 2.54429 1.97122 2.56363 2.00013 2.58547C2.06889 2.64641 2.14858 2.65544 2.2354 2.64849C2.29217 2.64381 2.3144 2.61603 2.32013 2.56048C2.32258 2.53669 2.32468 2.51274 2.32678 2.48875C2.33452 2.40049 2.34231 2.31167 2.3677 2.22853C2.41666 2.06725 2.48316 1.91274 2.67867 1.86829ZM9.33501 5.2233C9.37216 5.30524 9.42443 5.38198 9.52461 5.43406C9.52871 5.39815 9.53274 5.36347 9.53665 5.3297C9.54648 5.24495 9.55565 5.16589 9.56385 5.08719C9.57703 4.98065 9.55804 4.87261 9.50933 4.77695C9.38414 4.53285 9.41123 4.27591 9.4746 4.02296C9.4904 3.95994 9.49926 3.90907 9.47582 3.84935C8.87854 2.32055 7.79164 1.32785 6.2151 0.871254C6.18592 0.862829 6.15619 0.855986 6.12239 0.848204C6.09908 0.842836 6.07382 0.837022 6.04547 0.829935C6.09436 0.884173 6.12486 0.919334 6.15868 0.958332L6.1592 0.958927C6.19323 0.998163 6.22726 1.03757 6.25955 1.07837C6.36529 1.21222 6.36251 1.26743 6.27396 1.41396C6.22812 1.48947 6.19377 1.57139 6.17204 1.65701C6.15091 1.74216 6.09724 1.74109 6.03877 1.73992C6.03191 1.73979 6.02499 1.73965 6.01804 1.73965C5.94537 1.73829 5.9476 1.68856 5.94984 1.63852L5.94998 1.63548C5.94998 1.62878 5.94973 1.62203 5.94947 1.61528C5.94897 1.60176 5.94847 1.58821 5.94998 1.57489C5.95935 1.48861 5.91664 1.44538 5.83538 1.43375C5.81274 1.43047 5.78983 1.42817 5.76692 1.42586C5.72063 1.4212 5.67435 1.41655 5.63033 1.40389C5.47962 1.36014 5.356 1.39295 5.23932 1.49903C5.19248 1.54201 5.13369 1.57229 5.07507 1.60248C5.05438 1.61313 5.03372 1.62378 5.0136 1.63496C4.99387 1.64594 4.97294 1.65505 4.95206 1.66415C4.92242 1.67705 4.89286 1.68992 4.86689 1.70805C4.78268 1.76673 4.75403 1.88322 4.78667 1.9893C4.81411 2.07801 4.88269 2.10996 4.96499 2.1143C4.99258 2.1157 5.02055 2.10859 5.05133 2.10077C5.06646 2.09692 5.08226 2.09291 5.09903 2.08965C5.10403 2.1194 5.11229 2.14851 5.12368 2.17645L5.12516 2.17925C5.14107 2.20956 5.16365 2.25257 5.18688 2.2551C5.21987 2.25857 5.27595 2.23635 5.28759 2.20978C5.31105 2.15663 5.32061 2.09652 5.32998 2.03756C5.3313 2.02931 5.3326 2.02109 5.33395 2.01291C5.3374 1.99142 5.33788 1.96897 5.33836 1.94666C5.33914 1.91055 5.33991 1.87478 5.35322 1.84399C5.36817 1.80938 5.39728 1.78081 5.42635 1.75227C5.43913 1.73972 5.45191 1.72717 5.46347 1.71413C5.47477 1.73083 5.48875 1.74735 5.50272 1.76385C5.53319 1.79985 5.56364 1.83583 5.56626 1.87368C5.57713 2.03108 5.56823 2.18997 5.55939 2.34793L5.55879 2.35857C5.55706 2.38878 5.5199 2.44086 5.50011 2.44086C5.39518 2.44039 5.29053 2.42993 5.18758 2.40961C5.17642 2.40711 5.16514 2.40443 5.1538 2.40173C5.06331 2.38022 4.96884 2.35776 4.89988 2.42193C4.83347 2.48397 4.75844 2.53607 4.67711 2.57662C4.60628 2.61238 4.54203 2.58617 4.53387 2.50596C4.53283 2.49544 4.5324 2.48485 4.53197 2.4744C4.52994 2.42421 4.52805 2.37745 4.45835 2.35805C4.44522 2.35444 4.43844 2.32244 4.43284 2.29598C4.4317 2.29059 4.43061 2.28543 4.42952 2.28079C4.42527 2.26334 4.42251 2.24546 4.41976 2.22762C4.41588 2.20251 4.41202 2.17746 4.404 2.15371C4.36893 2.04989 4.30659 2.03461 4.23298 2.11465C4.15359 2.19884 4.07932 2.28771 4.01056 2.38079C3.99113 2.40796 3.98406 2.44398 3.97698 2.48001C3.97375 2.49646 3.97052 2.51291 3.96611 2.52853H4.11283C4.11429 2.53379 4.11505 2.53922 4.11508 2.54468C4.12481 2.67072 4.15189 2.68356 4.26683 2.63148C4.30853 2.61262 4.35414 2.60405 4.39983 2.60648C4.42553 2.60909 4.47224 2.64763 4.46928 2.66117C4.46125 2.69757 4.43932 2.7294 4.40817 2.74988C4.37941 2.76519 4.33729 2.76062 4.30106 2.75669L4.29757 2.75631C4.21891 2.74745 4.19079 2.78478 4.20155 2.85717C4.20811 2.89063 4.21681 2.92362 4.22759 2.95596C4.24322 3.01065 4.25915 3.06535 4.27507 3.12004C4.28037 3.13827 4.28568 3.15649 4.29097 3.17471L4.26857 3.20283C4.25184 3.19796 4.23469 3.19388 4.21753 3.1898C4.17966 3.18079 4.14177 3.17178 4.10831 3.15422C4.02445 3.11012 3.99337 3.11325 3.94128 3.19172L3.94064 3.1927C3.93013 3.20873 3.91631 3.22981 3.90066 3.23339C3.81714 3.25231 3.79839 3.31429 3.78485 3.38616C3.7792 3.41575 3.76845 3.44435 3.75551 3.47873C3.74894 3.4962 3.7418 3.51516 3.73449 3.53651C3.75446 3.54686 3.77466 3.55741 3.79505 3.56804C3.8266 3.58451 3.85858 3.6012 3.89076 3.61776C3.99493 3.67158 4.01924 3.7596 3.94632 3.85248C3.89915 3.91096 3.84602 3.96437 3.7878 4.01185C3.72112 4.06757 3.6515 4.11984 3.58189 4.17211C3.42961 4.28644 3.27733 4.40078 3.1558 4.55126C3.14618 4.56228 3.13435 4.57115 3.12107 4.5773C2.98547 4.64257 2.94519 4.75351 2.94918 4.89778C2.9516 4.98608 2.94338 5.07437 2.93513 5.16308C2.93213 5.19542 2.92911 5.22781 2.92661 5.26028C2.92443 5.28918 2.92001 5.31835 2.91561 5.34748C2.90701 5.40426 2.89843 5.46092 2.90647 5.51531C2.94121 5.73897 3.02242 5.95288 3.14486 6.14326C3.22681 6.27398 3.34244 6.37225 3.49454 6.39256C3.64016 6.40992 3.78733 6.40992 3.93295 6.39256C4.02615 6.38265 4.11813 6.36134 4.21016 6.34002C4.26488 6.32734 4.31962 6.31466 4.37466 6.30436C4.45018 6.29013 4.53509 6.28891 4.57172 6.37242C4.62781 6.49968 4.72243 6.53145 4.85092 6.52641C4.97384 6.52155 5.00492 6.56131 4.99121 6.68561C4.98944 6.72027 4.97847 6.75382 4.95943 6.78283C4.90109 6.85558 4.92124 6.92155 4.96325 6.98995C5.05828 7.14458 5.15303 7.29949 5.24748 7.4547C5.2526 7.46306 5.25773 7.47141 5.26287 7.47976C5.29104 7.52557 5.31928 7.57148 5.34454 7.61876C5.40722 7.73699 5.41451 7.8481 5.30617 7.94862C5.27377 7.9767 5.24974 8.01316 5.23672 8.054C5.19487 8.22674 5.20581 8.38803 5.3711 8.49948C5.42892 8.53855 5.43812 8.59237 5.43691 8.65764C5.43674 8.66709 5.43644 8.67677 5.43614 8.68659C5.43428 8.7475 5.43227 8.81353 5.45948 8.85972C5.51596 8.95388 5.54361 9.06252 5.539 9.17222C5.53692 9.24878 5.58762 9.3 5.66523 9.29288C5.74456 9.28428 5.82274 9.26716 5.89841 9.24184C5.93853 9.22913 5.97775 9.21256 6.0169 9.19603C6.07668 9.17077 6.13628 9.1456 6.19861 9.13437C6.32379 9.11215 6.42033 9.06024 6.49603 8.96076C6.58076 8.8507 6.68581 8.77934 6.82853 8.76493C6.97125 8.75052 7.02698 8.67709 7.02872 8.5382C7.02907 8.51494 7.02976 8.49185 7.0308 8.46876C7.04435 8.19098 7.15182 7.97779 7.43987 7.89237C7.44892 7.8898 7.45751 7.88555 7.46611 7.8813C7.47317 7.8778 7.48025 7.8743 7.48762 7.87171C7.58537 7.83768 7.60881 7.76494 7.59353 7.67137C7.58851 7.64581 7.58521 7.61994 7.58363 7.59394C7.58209 7.54209 7.58016 7.49022 7.57822 7.43834C7.57298 7.29755 7.56772 7.15668 7.57026 7.01599C7.57304 6.87172 7.64631 6.75453 7.7425 6.64742C7.95415 6.41235 8.14184 6.15923 8.27918 5.8726C8.32658 5.77364 8.35731 5.66843 8.31981 5.53215C8.29114 5.54412 8.26273 5.55498 8.23483 5.56565C8.17453 5.5887 8.1166 5.61085 8.06354 5.64135C7.85536 5.76149 7.7833 5.75559 7.61471 5.58527C7.60186 5.5737 7.58985 5.56123 7.57877 5.54795C7.53873 5.49363 7.49866 5.43932 7.45858 5.38502C7.28247 5.14636 7.10632 4.90766 6.93305 4.66723C6.90342 4.62589 6.88445 4.57676 6.86571 4.52821C6.86139 4.51702 6.85709 4.50586 6.85266 4.49483C6.84571 4.47729 6.84325 4.45819 6.83993 4.43241C6.83818 4.4189 6.8362 4.40355 6.83322 4.38563C6.85243 4.39602 6.86909 4.40456 6.88395 4.41217C6.91032 4.42568 6.93103 4.43629 6.95024 4.44917C6.97486 4.46579 6.99857 4.4842 7.02224 4.50258C7.06536 4.53606 7.10838 4.56947 7.15668 4.59188C7.30965 4.66237 7.40879 4.78285 7.49352 4.91913C7.53461 4.98512 7.5737 5.05251 7.61278 5.11989C7.64918 5.18263 7.68557 5.24537 7.72358 5.30698C7.85848 5.52607 7.93488 5.53493 8.08107 5.32434C8.23907 5.09674 8.38145 4.85768 8.52122 4.61827C8.54431 4.57886 8.54014 4.4931 8.51184 4.46063C8.46991 4.4122 8.41576 4.37434 8.3595 4.33499C8.33609 4.31862 8.31232 4.30199 8.28891 4.28424C8.27893 4.30097 8.2703 4.31471 8.26281 4.32664C8.24931 4.34815 8.2395 4.36379 8.23213 4.38042C8.20383 4.44518 8.1658 4.45837 8.10399 4.41844C8.07632 4.40061 8.04677 4.38567 8.01723 4.37075C7.98468 4.35431 7.95215 4.33788 7.9222 4.31758C7.85814 4.27435 7.79268 4.22799 7.74285 4.17018C7.72907 4.15085 7.71954 4.12882 7.7149 4.10554C7.71026 4.08225 7.71062 4.05825 7.71594 4.03511C7.72288 4.01046 7.78487 3.99293 7.82428 3.98772C7.87031 3.98241 7.91693 3.9863 7.96144 3.99918C7.97473 4.00301 7.98804 4.00683 8.00136 4.01065C8.11037 4.04191 8.21997 4.07333 8.32363 4.11758C8.42486 4.16133 8.50768 4.15803 8.60143 4.10022C8.70596 4.03564 8.79242 4.08182 8.81395 4.20334C8.82608 4.28033 8.86621 4.35012 8.92664 4.39935C8.98555 4.45408 9.03234 4.52056 9.06398 4.59448C9.11367 4.70312 9.15984 4.81318 9.20603 4.92327C9.24812 5.0236 9.29022 5.12396 9.33501 5.2233ZM6.76733 2.95319C6.79405 2.97087 6.82078 2.98855 6.84826 3.00481C6.87448 3.02044 6.89618 3.09509 6.88021 3.11592C6.85377 3.15416 6.80393 3.17903 6.75889 3.2015C6.75689 3.20249 6.75491 3.20348 6.75294 3.20447C6.73098 3.21516 6.70676 3.22299 6.6827 3.23078C6.64075 3.24434 6.59929 3.25775 6.57115 3.28589C6.52688 3.33016 6.50084 3.40516 6.49215 3.47009C6.47948 3.56505 6.56143 3.63137 6.65936 3.61401C6.70867 3.60481 6.71874 3.62477 6.73072 3.66245C6.77864 3.81297 6.73089 3.94717 6.65936 4.07564C6.65016 4.09196 6.61074 4.10498 6.59077 4.09942C6.55763 4.09034 6.52543 4.07765 6.49321 4.06495C6.46383 4.05337 6.43444 4.04179 6.4043 4.03293C6.39347 4.02974 6.38264 4.02652 6.3718 4.02329C6.28943 3.99878 6.20652 3.9741 6.12198 3.96244C6.03743 3.95081 6.00964 4.02494 5.99454 4.0897C5.98621 4.1256 5.98554 4.16318 5.98487 4.20083C5.98451 4.22126 5.98415 4.24171 5.98256 4.26192C5.97579 4.35289 5.94662 4.37928 5.86102 4.35064C5.82802 4.33961 5.79473 4.32929 5.76145 4.31897C5.61384 4.2732 5.46621 4.22742 5.34309 4.1206C5.30576 4.08831 5.2285 4.08658 5.17311 4.09439C5.09411 4.10619 5.04601 4.0805 5.03421 4.00758C5.02387 3.94428 5.01988 3.88 5.01533 3.8068C5.01323 3.773 5.01101 3.7373 5.00799 3.6989C4.99281 3.70508 4.97679 3.71 4.96096 3.71487C4.92738 3.72519 4.89469 3.73525 4.87273 3.75637C4.77446 3.85099 4.66473 3.89665 4.52791 3.88154C4.47303 3.8777 4.41793 3.87828 4.36314 3.88328C4.19073 3.89231 4.12666 3.82807 4.13985 3.64457C4.25549 3.65364 4.30439 3.57983 4.35572 3.50235C4.37021 3.48047 4.3849 3.4583 4.40134 3.43762C4.40668 3.43092 4.41201 3.42421 4.41735 3.41748C4.51933 3.2891 4.62284 3.15878 4.78123 3.08537C4.85416 3.05169 4.90468 3.06558 4.93385 3.12408C4.98281 3.22183 5.06286 3.24943 5.16061 3.26957C5.29743 3.29752 5.30593 3.31419 5.30593 3.46748C5.30628 3.52929 5.30993 3.58519 5.38181 3.60394C5.55023 3.64786 5.56881 3.62338 5.57002 3.47738C5.5701 3.46807 5.56857 3.45737 5.567 3.44638C5.56167 3.40904 5.55586 3.36831 5.611 3.36696C5.67593 3.3654 5.69451 3.42217 5.69781 3.4845C5.69937 3.52842 5.7084 3.5805 5.7341 3.61279C5.77125 3.65967 5.86883 3.61661 5.89036 3.54717C5.89668 3.52193 5.89908 3.49588 5.89748 3.46991C5.89627 3.3588 5.93759 3.31922 6.04177 3.34717C6.09733 3.3621 6.12042 3.34127 6.12858 3.29596C6.13962 3.2365 6.14745 3.17645 6.15527 3.11648C6.15791 3.09625 6.16055 3.07604 6.1633 3.05586C6.18692 2.88329 6.24994 2.84718 6.41836 2.8312C6.56209 2.81743 6.66458 2.88522 6.76733 2.95319Z" fill="#BEBEC9"/>
    <script xmlns=""/></svg>