<svg xmlns="http://www.w3.org/2000/svg" width="20" height="20" viewBox="0 0 20 20" fill="none">
<path fill-rule="evenodd" clip-rule="evenodd" d="M13.8505 1H3.00049C1.89592 1 1.00049 1.89543 1.00049 3V4.93735V5.93902V16.9998C1.00049 18.1044 1.89592 18.9998 3.00049 18.9998H17.0005C18.1051 18.9998 19.0005 18.1044 19.0005 16.9998V6.93735C19.0005 5.83279 18.1051 4.93735 17.0005 4.93735H15.8505V4.93723H4.5337C4.14348 4.93723 3.82715 4.6209 3.82715 4.23068C3.82715 3.84046 4.14348 3.52413 4.5337 3.52413H15.8505V3C15.8505 1.89543 14.9551 1 13.8505 1ZM10.2644 16.0897C11.2729 14.9058 12.2806 13.721 13.2852 12.5325C13.3382 12.4699 13.3809 12.3766 13.3941 12.29C13.4361 12.0172 13.2656 11.8071 13.011 11.8059C12.6692 11.8043 12.3275 11.8047 11.9858 11.805C11.8393 11.8052 11.6929 11.8053 11.5464 11.8053H11.4363V11.6746L11.4363 10.8855C11.4364 10.2282 11.4365 9.57084 11.436 8.91333C11.4358 8.61599 11.2952 8.43527 11.0523 8.43383C10.4929 8.43083 9.93341 8.43152 9.37383 8.43221H9.37375L8.95388 8.43267C8.84373 8.43267 8.74732 8.47251 8.66931 8.5698C8.58884 8.66997 8.56873 8.79093 8.56873 8.92257C8.5691 9.60972 8.56905 10.2967 8.569 10.9838V10.9862L8.56897 11.6737V11.8053H8.45956L8.01762 11.8055H8.01759C7.67388 11.8057 7.33021 11.8059 6.98642 11.805C6.8174 11.8048 6.69229 11.8896 6.62875 12.0732C6.56914 12.2459 6.60618 12.4029 6.7178 12.5343L7.14905 13.0418L7.14962 13.0424C8.01292 14.0584 8.87623 15.0744 9.74061 16.0891C9.90203 16.2787 10.103 16.2793 10.2644 16.0897Z" fill="#F40C44"/>
<script xmlns=""/></svg>