<svg xmlns="http://www.w3.org/2000/svg" width="21" height="21" viewBox="0 0 21 21" fill="none">
<path fill-rule="evenodd" clip-rule="evenodd" d="M8.96601 17.1847C9.34474 17.2399 9.54111 17.4685 9.55083 17.8658L9.55244 17.9015C9.55946 18.184 9.56647 18.4768 9.54597 18.7697C9.51414 19.2261 9.29187 19.4573 8.88455 19.4579C8.38679 19.4586 7.88956 19.4579 7.39234 19.4573H7.39015C6.64834 19.4566 5.88172 19.456 5.12805 19.4592H5.11402C4.20767 19.4592 3.33477 19.0554 2.65393 18.321C2.02218 17.6392 1.6154 16.7322 1.53502 15.8283C1.52854 15.8127 1.52207 15.7965 1.51667 15.7809L1.50049 15.7335V5.21546L1.50534 5.18754C1.51505 5.13494 1.52477 5.0817 1.53394 5.02911C1.55444 4.91353 1.57602 4.79341 1.60137 4.67459C1.79667 3.76426 2.22881 2.97601 2.85138 2.39553C3.47774 1.81181 4.23842 1.49365 5.04928 1.47417C5.99124 1.45404 6.9483 1.45858 7.87354 1.46313C8.21018 1.46508 8.54683 1.46638 8.88347 1.46703C9.28809 1.46768 9.53842 1.74623 9.55406 2.21243C9.56323 2.50137 9.56647 2.74486 9.55083 2.99224C9.51684 3.52467 9.30212 3.75192 8.83222 3.75192C8.48371 3.75257 8.13465 3.75387 7.78614 3.75582L7.72788 3.75609C6.90389 3.75991 6.05403 3.76386 5.21653 3.74673H5.1847C4.31395 3.74673 3.69353 4.46226 3.55003 5.14468C3.51064 5.32973 3.49122 5.53102 3.49068 5.74269C3.48933 6.68141 3.48986 7.61968 3.49038 8.55825C3.49049 8.74604 3.49059 8.93385 3.49068 9.12167L3.49081 9.34444C3.49187 11.26 3.49296 13.2351 3.48205 15.179C3.47666 16.1789 4.10301 16.9432 4.7121 17.1042C4.87017 17.1464 5.0536 17.1672 5.27209 17.1685C6.0808 17.173 6.90299 17.173 7.69874 17.1724H8.70112H8.71785C8.79769 17.1717 8.87916 17.1724 8.96601 17.1847ZM12.2466 3.63404C14.5772 5.70229 16.9005 7.77711 19.2221 9.85344C19.594 10.1858 19.5929 10.5994 19.221 10.9318C17.2313 12.7113 15.2391 14.4885 13.2469 16.2658C12.9146 16.5623 12.5823 16.8587 12.25 17.1552C11.9924 17.385 11.6845 17.4613 11.3459 17.3385C10.9859 17.2077 10.8195 16.9502 10.82 16.6022C10.8216 15.8943 10.8213 15.1868 10.8209 14.4791C10.8207 14.1758 10.8206 13.8726 10.8206 13.5692V13.344H10.5625C10.0236 13.344 9.66388 13.3439 9.37592 13.3439C8.70273 13.3438 8.42184 13.3438 7.16216 13.3445C6.90402 13.3445 6.66682 13.3031 6.47039 13.1374C6.27961 12.9768 6.20149 12.7783 6.20149 12.5515C6.20126 12.2633 6.20092 11.9752 6.20058 11.6871C6.19922 10.5349 6.19787 9.38304 6.20375 8.23116C6.20658 7.73115 6.56096 7.44174 7.14405 7.44124C8.33428 7.44024 8.65724 7.44034 9.25634 7.44052C9.56594 7.44062 9.94928 7.44073 10.5642 7.44073H10.8206V7.21396C10.8206 6.91242 10.8203 6.61089 10.82 6.30935C10.8193 5.6058 10.8186 4.90225 10.8217 4.1987C10.824 3.67444 11.2361 3.32342 11.7711 3.40979C11.9409 3.43706 12.1238 3.52494 12.2466 3.63404Z" fill="#F40C44"/>
<script xmlns=""/></svg>