<svg xmlns="http://www.w3.org/2000/svg" width="40" height="40" viewBox="0 0 40 40" fill="none">
    <g clip-path="url(#clip0_9172_7806)">
        <path
            d="M19.9785 0.220703C9.06649 0.220703 0.220703 9.06649 0.220703 19.9785C0.220703 30.8905 9.06649 39.7363 19.9785 39.7363C30.8905 39.7363 39.7363 30.8905 39.7363 19.9785C39.7363 9.06649 30.8905 0.220703 19.9785 0.220703ZM12.568 28.4981C14.2351 30.6174 16.7993 31.7046 20.1897 31.73C23.246 31.7076 25.2683 30.9805 26.9508 29.2994C28.8713 27.3807 28.8353 25.0273 28.221 23.5951C27.8597 22.7525 27.2059 22.0518 26.3234 21.5192C26.1083 23.1209 25.6218 24.3924 24.8521 25.3733C23.8388 26.665 22.3859 27.3715 20.5344 27.4733C19.1324 27.5501 17.7832 27.2116 16.7356 26.5205C15.4966 25.7026 14.7717 24.4504 14.694 22.9949C14.5412 20.1256 16.8173 18.0607 20.3579 17.8565C21.6149 17.7845 22.7907 17.8412 23.8778 18.026C23.7334 17.1431 23.4418 16.4436 23.0063 15.9378C22.4074 15.2428 21.4823 14.8858 20.256 14.8784C20.2446 14.8784 20.2332 14.8784 20.2218 14.8784C19.2374 14.8784 17.9004 15.1541 17.0487 16.4463L15.0004 15.0413C16.1407 13.3109 17.9931 12.3603 20.2209 12.3603C20.2376 12.3603 20.2547 12.3603 20.2714 12.3603C23.9955 12.3841 26.2132 14.708 26.4336 18.7667C26.5601 18.8211 26.6852 18.8778 26.8077 18.9366C28.5455 19.77 29.8162 21.0323 30.4826 22.5861C31.4117 24.7529 31.4964 28.2829 28.6777 31.0987C26.5236 33.2509 23.9081 34.2221 20.198 34.248H20.1814C16.0081 34.2191 12.799 32.8149 10.6432 30.0743C8.72491 27.6358 7.73526 24.2423 7.70189 19.9886V19.9785V19.9684C7.73526 15.7148 8.72491 12.3213 10.6432 9.88271C12.799 7.14208 16.0081 5.73796 20.1814 5.70898H20.198C24.3797 5.73796 27.6252 7.13682 29.8443 9.86691C30.9393 11.214 31.7436 12.838 32.2551 14.7229L29.8552 15.3631C29.4333 13.8321 28.7936 12.5184 27.9449 11.4743C26.2141 9.34486 23.6052 8.25204 20.1901 8.22701C16.7997 8.25204 14.2356 9.33959 12.5685 11.4589C11.0072 13.4435 10.2006 16.3097 10.1703 19.9785C10.2002 23.6473 11.0072 26.5135 12.568 28.4981Z"
            fill="var(--extend-default-text)"></path>
        <path
            d="M20.4977 20.3707C17.9463 20.5178 17.1003 21.752 17.1591 22.8585C17.2386 24.3504 18.8508 25.0467 20.4024 24.9594C21.9216 24.876 23.6462 24.2797 23.9404 20.6083C23.1523 20.4361 22.2851 20.3457 21.3583 20.3457C21.0768 20.3457 20.7901 20.3536 20.4977 20.3707Z"
            fill="var(--extend-default-text)"></path>
    </g>
    <defs>
        <clipPath id="clip0_9172_7806">
            <rect width="40" height="40" fill="var(--extend-default-text-2)"></rect>
        </clipPath>
    </defs>
</svg>