<svg xmlns="http://www.w3.org/2000/svg" width="14" height="15" viewBox="0 0 14 15" fill="none">
    <path d="M7.00482 0.5C10.8655 0.500979 14.0015 3.64005 14 7.50098C13.9979 11.3719 10.8606 14.5021 6.98589 14.5C3.12554 14.4971 -0.00911854 11.3528 1.99304e-05 7.48221C0.00932159 3.61802 3.13958 0.501632 7.00482 0.5Z" fill="#2E7BFF"/>
    <path d="M11.3746 5.2753C11.3814 5.4113 11.2931 5.54287 11.18 5.66085C10.8605 5.99411 10.5404 6.32658 10.2194 6.65826C10.0034 6.8814 9.78426 7.10106 9.56837 7.32467C9.38148 7.51808 9.19826 7.71545 9.01122 7.90885C8.817 8.10985 8.61927 8.30738 8.42475 8.50838C8.24855 8.69056 8.07571 8.87637 7.89966 9.05856C7.70529 9.25971 7.5068 9.4566 7.31396 9.6595C7.15669 9.82492 6.99485 9.98575 6.84063 10.1548C6.6939 10.316 6.53664 10.4668 6.3841 10.6223C6.30486 10.7029 6.22821 10.7861 6.14652 10.8639C6.05119 10.9545 5.92567 11.0032 5.79637 10.9998C5.66707 10.9965 5.54405 10.9414 5.45318 10.846C5.08154 10.4643 4.71107 10.0812 4.34178 9.69682C3.82437 9.16093 3.30702 8.62472 2.78972 8.08819C2.63704 7.93005 2.58665 7.7428 2.65475 7.52631C2.67484 7.46658 2.70797 7.41246 2.75155 7.36816C3.00776 7.09932 3.26107 6.82605 3.53025 6.56922C3.6524 6.45251 3.9651 6.43559 4.10969 6.564C4.31994 6.75046 4.50866 6.95936 4.70044 7.16495C4.75998 7.22821 4.82152 7.29067 4.88213 7.3533C5.17254 7.65324 5.46264 7.95345 5.75244 8.25392C5.79183 8.29488 5.81749 8.30137 5.86176 8.25519C6.14836 7.95472 6.4409 7.66073 6.72627 7.35947C6.97836 7.09347 7.23441 6.83174 7.48726 6.56669C7.69354 6.35051 7.90272 6.13686 8.11174 5.92321C8.3991 5.62938 8.68401 5.33318 8.96984 5.03761C9.2065 4.79312 9.44438 4.54974 9.6786 4.30272C9.76732 4.20925 9.849 4.11041 9.96688 4.05222C10.1678 3.95306 10.3791 3.99971 10.5343 4.15327C10.7767 4.39302 11.0119 4.64098 11.2461 4.88943C11.3337 4.98384 11.3723 5.10292 11.3746 5.2753Z" fill="white"/>
    <script xmlns=""/></svg>