<svg xmlns="http://www.w3.org/2000/svg" width="48" height="48" viewBox="0 0 48 48" fill="none">
    <g clip-path="url(#clip0_722_3075)">
    <path d="M24 48C37.2548 48 48 37.2548 48 24C48 10.7452 37.2548 0 24 0C10.7452 0 0 10.7452 0 24C0 37.2548 10.7452 48 24 48Z" fill="url(#paint0_linear_722_3075)"/>
    <path fill-rule="evenodd" clip-rule="evenodd" d="M29.0256 20.2535C30.7679 21.5023 32.9031 22.2274 35.2094 22.2274V17.786C34.7763 17.786 34.3332 17.7457 33.9102 17.655V21.1498C31.6039 21.1498 29.4687 20.4146 27.7264 19.1758V28.23C27.7264 32.7621 24.0504 36.428 19.5182 36.428C17.8263 36.428 16.2551 35.9144 14.9459 35.0382C16.4364 36.559 18.5111 37.5057 20.8074 37.5057C25.3395 37.5057 29.0155 33.8296 29.0155 29.3076V20.2535H29.0256ZM30.6269 15.7717C29.7407 14.7948 29.1464 13.5459 29.0256 12.1561V11.582H27.7969C28.1091 13.3445 29.1666 14.8552 30.6269 15.7717ZM17.8263 31.5636C17.3328 30.9089 17.0608 30.1133 17.0608 29.2874C17.0608 27.2127 18.7428 25.5409 20.8175 25.5409C21.2002 25.5409 21.5829 25.6013 21.9555 25.7121V21.18C21.5224 21.1196 21.0894 21.0994 20.6563 21.1095V24.6446C20.2837 24.5237 19.901 24.4733 19.5182 24.4733C17.4436 24.4733 15.7616 26.1553 15.7616 28.2199C15.7616 29.6802 16.5976 30.9492 17.8263 31.5736V31.5636Z" fill="#FF1753"/>
    <path fill-rule="evenodd" clip-rule="evenodd" d="M27.7264 19.1758C29.4687 20.4247 31.6039 21.1498 33.9102 21.1498V17.655C32.6211 17.3831 31.483 16.7083 30.6269 15.7717C29.1565 14.8552 28.099 13.3445 27.7969 11.582H24.564V29.3076C24.564 31.3722 22.8821 33.0441 20.8074 33.0441C19.5888 33.0441 18.501 32.4599 17.8162 31.5636C16.5875 30.9492 15.7516 29.6802 15.7516 28.2098C15.7516 26.1351 17.4335 24.4633 19.5082 24.4633C19.901 24.4633 20.2837 24.5237 20.6462 24.6345V21.0994C16.1947 21.1901 12.6093 24.8258 12.6093 29.2975C12.6093 31.5334 13.5057 33.5577 14.9459 35.0281C16.2551 35.9043 17.8263 36.418 19.5183 36.418C24.0504 36.418 27.7264 32.7419 27.7264 28.2199V19.1657V19.1758Z" fill="white"/>
    <path fill-rule="evenodd" clip-rule="evenodd" d="M33.9203 17.6551V16.7084C32.7621 16.7084 31.624 16.3861 30.637 15.7718C31.5132 16.7285 32.6614 17.3832 33.9203 17.6551ZM27.7969 11.5821C27.7667 11.4109 27.7465 11.2397 27.7264 11.0685V10.4944H23.2648V28.2199C23.2648 30.2846 21.5829 31.9564 19.5082 31.9564C18.9039 31.9564 18.3298 31.8154 17.8162 31.5536C18.5011 32.4499 19.5888 33.034 20.8074 33.034C22.872 33.034 24.5539 31.3622 24.564 29.2976V11.5821H27.7969ZM20.6463 21.1096V20.1024C20.2736 20.0521 19.901 20.0219 19.5183 20.0219C14.9862 20.0219 11.3101 23.6979 11.3101 28.2199C11.3101 31.0601 12.7503 33.5578 14.9459 35.0382C13.4956 33.5578 12.6093 31.5334 12.6093 29.3076C12.6093 24.836 16.1846 21.2002 20.6463 21.1096Z" fill="#00C9D0"/>
    </g>
    <defs>
    <linearGradient id="paint0_linear_722_3075" x1="7.02979" y1="7.02979" x2="40.9702" y2="40.9702" gradientUnits="userSpaceOnUse">
    <stop stop-color="#23004A"/>
    <stop offset="0.96" stop-color="#010003"/>
    <stop offset="1"/>
    </linearGradient>
    <clipPath id="clip0_722_3075">
    <rect width="48" height="48" fill="white"/>
    </clipPath>
    </defs>
    <script xmlns=""/></svg>