<svg xmlns="http://www.w3.org/2000/svg" width="58" height="14" viewBox="0 0 58 14" fill="none">
    <path d="M36.1235 5.91069C36.1094 5.18508 36.0127 4.53458 35.8249 3.921C35.3841 2.47615 34.5568 1.50868 33.3647 1.04403C32.5635 0.73215 31.6917 0.669774 30.7743 0.858177C29.313 1.15988 28.1339 2.02169 27.2719 3.42071C26.3827 4.86556 25.9158 6.59174 25.8833 8.55469V8.55724C25.8757 9.28285 25.9658 9.97153 26.1514 10.6017C26.6335 12.2413 27.5769 13.2991 28.9558 13.7485C29.3629 13.8809 29.7907 13.9471 30.2499 13.9471C30.4844 13.9471 30.7265 13.9305 30.9784 13.8962C31.6515 13.8058 32.2856 13.5805 32.8621 13.2304C33.9706 12.5557 34.8185 11.4966 35.3852 10.081C35.902 8.78765 36.1506 7.38481 36.1235 5.91069ZM32.7763 9.78568C32.4495 10.4782 31.9772 10.9721 31.3725 11.2522C31.087 11.3846 30.7993 11.4457 30.6614 11.4406H30.6581C30.0523 11.4367 29.6691 11.3285 29.3325 11.0663C28.9601 10.7761 28.7071 10.3394 28.5584 9.73094C28.4444 9.2663 28.4031 8.76983 28.4292 8.21608C28.4867 7.00928 28.744 5.95779 29.2141 4.99922C29.5865 4.23925 30.0599 3.73769 30.6614 3.46399C30.9697 3.32396 31.2748 3.25395 31.5744 3.25395C31.911 3.25395 32.2411 3.34306 32.5613 3.52001C32.9294 3.72368 33.1954 4.08649 33.3734 4.63006C33.495 5.00177 33.5613 5.39894 33.5765 5.84449C33.6231 7.23714 33.3539 8.5636 32.7763 9.78568Z" fill="#004B8D"/>
    <path d="M39.0631 10.8144C39.1879 10.0149 39.3139 9.21676 39.4377 8.41732C40.3203 8.41987 41.2041 8.4186 42.0867 8.41987H43.1388L43.5535 5.8306H39.8383L39.9023 5.43088C40.0131 4.7371 40.1249 4.04205 40.2346 3.34445C41.1856 3.34699 42.1356 3.34699 43.0867 3.34699H44.1626L44.5751 0.753906H38.2L36.123 13.9472H42.7262L43.1388 11.3427H38.9806L39.0631 10.8144Z" fill="#004B8D"/>
    <path d="M56.9729 1.29807C56.9349 1.27898 56.8969 1.25861 56.86 1.23951C56.7742 1.19496 56.6863 1.14786 56.5907 1.1084C56.0978 0.900899 55.5496 0.785056 54.9134 0.751958C54.2011 0.715042 53.5552 0.78251 52.9385 0.958183C51.1384 1.47375 49.7704 2.66909 48.8747 4.50983C48.397 5.49131 48.1169 6.61664 48.0431 7.85399C47.9921 8.71453 48.0399 9.46687 48.1919 10.153C48.4828 11.4693 49.1049 12.475 50.0397 13.142C50.7638 13.6576 51.6063 13.9211 52.6171 13.9453C52.6768 13.9465 52.7365 13.9478 52.7963 13.9478C53.2056 13.9478 53.6181 13.9134 54.0253 13.846C54.5952 13.7518 55.0523 13.6117 55.466 13.4081C55.6657 13.3088 55.7645 13.1064 55.7341 12.853C55.7168 12.7054 55.7026 12.5577 55.6885 12.41L55.5268 10.801L55.0773 11.011C55.0447 11.0263 55.0143 11.0403 54.9861 11.053C54.6007 11.2223 54.1751 11.328 53.6844 11.3738C53.1589 11.4235 52.7593 11.4005 52.3902 11.3C51.754 11.1269 51.2958 10.7539 50.9897 10.1594C50.741 9.67564 50.6162 9.11043 50.5967 8.38228C50.5815 7.83107 50.6346 7.28369 50.7519 6.75539C50.969 5.77901 51.3534 5.00503 51.9234 4.38763C52.5313 3.72949 53.2566 3.37432 54.1425 3.30049C54.4465 3.27503 54.7744 3.29031 55.1435 3.34632C55.4529 3.39342 55.8145 3.46725 56.1489 3.65947C56.2162 3.69894 56.277 3.70148 56.2922 3.70148L56.5484 3.73585L57.2574 1.4381L56.9729 1.29807Z" fill="#004B8D"/>
    <path d="M27.0424 0.740234H18.8792L18.4492 3.39315H21.2948L19.6446 13.9463H22.0895L23.7409 3.39188H26.6136L27.0424 0.740234Z" fill="#004B8D"/>
    <path d="M47.9335 1.30103C47.9433 1.23611 47.9748 1.12409 47.9726 1.09226L48.0225 0.742188H45.5841L43.5799 13.4683L43.5137 13.9457H43.8177C43.834 13.952 43.872 13.9444 43.9295 13.9457H44.3811C44.7894 13.9457 45.1976 13.9469 45.6058 13.9482H45.6069C45.8099 13.9482 45.9586 13.7967 45.9977 13.5523C46.1204 12.7682 46.2442 11.9827 46.3679 11.1986L46.9336 7.59853C47.0508 6.85128 47.1681 6.10531 47.2854 5.35806C47.3972 4.65028 47.509 3.94249 47.6197 3.23598L47.9335 1.30103Z" fill="#004B8D"/>
    <path d="M13.8976 9.92003L13.7999 10.0028C13.7847 10.0155 13.7717 10.027 13.7587 10.0384C12.6947 10.9881 11.5373 11.6971 10.3192 12.1465C9.23133 12.5475 8.14456 12.7817 7.08818 12.8415C6.37814 12.8823 5.7365 12.8466 5.12417 12.7321C4.38047 12.5933 3.75403 12.3642 3.20902 12.0332C2.5956 11.6602 2.1483 11.2007 1.84322 10.6278C1.44911 9.88821 1.33512 9.03403 1.49471 8.01563C1.61414 7.25566 1.89316 6.52623 2.34915 5.78408C2.91479 4.86243 3.66392 4.0528 4.63778 3.30938C4.82235 3.16935 5.00692 3.03823 5.20234 2.90075C5.29137 2.83837 5.38148 2.77472 5.47159 2.71107L5.55519 2.65124L5.44228 2.375L5.34999 2.41319C4.51836 2.76199 3.37621 3.51178 2.57389 4.23739C1.72379 5.00628 1.09192 5.81081 0.64136 6.69936C0.162571 7.64774 -0.045881 8.56175 0.00840349 9.49485C0.0496597 10.2128 0.236398 10.876 0.562105 11.4642C0.974667 12.2076 1.56528 12.783 2.36543 13.2234C3.13519 13.6461 4.0146 13.893 5.05469 13.9758C5.27182 13.9936 5.49113 14.0012 5.71696 14.0012C6.05786 14.0012 6.40963 13.9809 6.77985 13.9414C7.48446 13.8663 8.1945 13.7212 8.88934 13.5124C10.5342 13.0172 11.9988 12.186 13.2397 11.0377C13.4221 10.8697 13.6001 10.6889 13.7717 10.5145C13.852 10.433 13.9335 10.3503 14.016 10.2688L14.1017 10.1835L13.8976 9.92003Z" fill="#004B8D"/>
    <path d="M16.9532 4.26933C16.7903 2.93778 16.2366 1.87865 15.3083 1.12503C14.5418 0.501268 13.6234 0.143557 12.4986 0.0315332C11.9004 -0.0282975 11.2761 -0.00283759 10.641 0.10664C9.42825 0.317957 8.28936 0.786418 7.25579 1.50057C6.58917 1.96139 6.03982 2.48332 5.57623 3.0969C5.54474 3.13891 5.47852 3.27003 5.47852 3.27003L5.61857 3.41515L5.68262 3.47498L5.72714 3.42406C5.73691 3.41642 5.74777 3.40878 5.75645 3.39987C6.43175 2.75192 7.20693 2.24909 8.1276 1.8621C9.60196 1.24215 10.9721 1.05884 12.3162 1.30071C13.0023 1.42419 13.5864 1.6686 14.1043 2.04923C14.8741 2.61444 15.3344 3.34895 15.5125 4.29097C15.6373 4.9542 15.6503 5.63143 15.5537 6.3634C15.4343 7.26214 15.1867 8.03993 14.7959 8.74135C14.7373 8.84574 14.6743 8.94631 14.607 9.05324C14.5755 9.10288 14.544 9.1538 14.5125 9.20472L14.4615 9.28874L14.6504 9.53443L14.7308 9.44023C14.797 9.36385 14.8621 9.28874 14.9273 9.21491C15.0695 9.05196 15.2041 8.89793 15.3366 8.73499C15.9174 8.01066 16.3191 7.35379 16.6003 6.66765C16.9347 5.84657 17.0498 5.06368 16.9532 4.26933Z" fill="#8A2529"/>
    <path d="M6.5451 4.67328H5.78837C5.13913 4.67328 4.49098 4.67328 3.84173 4.672C3.77116 4.66946 3.67562 4.70383 3.65065 4.85913C3.59745 5.19393 3.54425 5.52745 3.48997 5.86098L2.93735 9.29042C2.91347 9.43554 2.89176 9.58066 2.86787 9.72833L2.8125 10.0848H5.99357L6.18791 8.87161H4.21087L4.25321 8.60683C4.29012 8.38023 4.32595 8.15491 4.35961 7.92832C4.35961 7.92705 4.35961 7.92577 4.35961 7.9245C4.36286 7.9245 4.36612 7.9245 4.36938 7.9245C4.76674 7.92705 5.1641 7.92705 5.56147 7.92577H6.13037L6.32688 6.70879H4.56155C4.60389 6.43765 4.64623 6.16777 4.69183 5.89662C4.74286 5.89408 4.79388 5.89535 4.84491 5.89535H5.23684C5.61358 5.89535 5.9914 5.89535 6.36813 5.89535H6.37899C6.51796 5.90172 6.55379 5.79733 6.56356 5.73241C6.59721 5.51472 6.63413 5.29832 6.67213 5.07809L6.73618 4.69619L6.59613 4.6771C6.57658 4.67582 6.5603 4.67328 6.5451 4.67328Z" fill="#004B8D"/>
    <path d="M12.7341 7.06239C12.6331 6.98728 12.5267 6.9249 12.4236 6.86507C12.3563 6.82561 12.2901 6.78742 12.2249 6.74414C12.1891 6.72123 12.1533 6.69831 12.1163 6.6754C11.9872 6.59393 11.8645 6.51627 11.757 6.41825C11.6821 6.34951 11.643 6.26549 11.6473 6.1802C11.6517 6.09109 11.7038 6.00198 11.7917 5.93833C11.8428 5.90142 11.9003 5.86323 11.9481 5.85814L12.0284 5.84795C12.1837 5.82886 12.3443 5.80849 12.4909 5.8314C12.6418 5.85432 12.7906 5.90396 12.948 5.95616C13.0186 5.97907 13.0902 6.00326 13.163 6.0249L13.2552 6.0529L13.6385 4.91612L13.5386 4.86902C13.5115 4.85629 13.4854 4.84229 13.4593 4.82956C13.4029 4.80155 13.3486 4.77482 13.2932 4.75191C12.8785 4.58769 12.4258 4.54059 11.9459 4.61315C11.5029 4.68062 11.1305 4.87157 10.8385 5.1809C10.5432 5.49406 10.3738 5.95616 10.3868 6.41698C10.3988 6.83579 10.5638 7.21387 10.8526 7.48248C11.0665 7.68106 11.3086 7.81727 11.5453 7.95094C11.7277 8.05278 11.8569 8.14316 11.9644 8.24118C12.0425 8.31247 12.0838 8.41049 12.0805 8.51742C12.0784 8.6269 12.0284 8.72874 11.9437 8.79748C11.8742 8.85349 11.7917 8.89677 11.7114 8.91841C11.415 8.99861 11.1001 8.95915 10.6908 8.79111C10.6083 8.75801 10.528 8.71346 10.4422 8.66763C10.401 8.64599 10.3597 8.62308 10.3174 8.60144L10.2186 8.55052L9.7832 9.69239L9.87223 9.7484C9.89829 9.76495 9.92434 9.78277 9.94823 9.79932C10.0036 9.83624 10.0611 9.8757 10.1241 9.90498C10.5302 10.0921 10.9329 10.1863 11.3281 10.1863C11.6528 10.1863 11.973 10.1227 12.2857 9.99536C12.7287 9.81587 13.0381 9.50653 13.2042 9.07499C13.5191 8.26664 13.3432 7.51303 12.7341 7.06239Z" fill="#004B8D"/>
    <path d="M9.97854 5.79952H9.97963C9.98071 5.79697 9.9818 5.7957 9.9818 5.79315C9.99049 5.77533 9.99917 5.75369 10.0057 5.7295C10.2576 5.03572 10.6614 4.77221 10.8113 4.69583L10.8688 4.6691H10.2912H10.2771C10.2673 4.66655 10.2565 4.6691 10.2402 4.6691L9.845 4.67037C8.92108 4.67037 8.16436 4.67037 7.23935 4.6691C7.13187 4.6691 7.06781 4.73657 7.04718 4.86896C7.02981 4.98608 7.01027 5.10446 6.99073 5.22158C6.9777 5.3005 6.96467 5.37816 6.95273 5.45708C6.94296 5.52073 6.93318 5.58438 6.9245 5.65185L6.88867 5.90136H7.92876L7.311 9.92529L7.3034 10.0386L7.39026 10.073C7.40112 10.078 7.42066 10.087 7.44563 10.087H7.55637C7.67254 10.087 7.78871 10.0882 7.90488 10.0882C8.03842 10.0882 8.17196 10.0882 8.3055 10.0857C8.38149 10.0844 8.45315 9.9953 8.46726 9.9151C8.50092 9.71906 8.53023 9.52175 8.56063 9.32444L8.6768 8.56573C8.8136 7.67591 8.94931 6.78609 9.08502 5.89627C9.2305 5.89881 9.2077 5.89881 9.3521 5.89881C9.46827 5.89881 9.68975 5.89881 9.80592 5.90008C9.83632 5.90263 9.92426 5.90136 9.97854 5.79952Z" fill="#004B8D"/>
    <path d="M57.2537 11.3926C57.0485 11.3926 56.8596 11.483 56.7206 11.6459C56.5827 11.8063 56.5078 12.024 56.5078 12.2582C56.5078 12.7458 56.8335 13.1289 57.2483 13.1302C57.2493 13.1302 57.2493 13.1302 57.2504 13.1302C57.4556 13.1302 57.6456 13.0398 57.7846 12.8769C57.9236 12.7152 57.9995 12.495 57.9995 12.2569C58.0006 11.7732 57.6728 11.3939 57.2537 11.3926ZM57.6706 12.7636C57.5566 12.896 57.4089 12.9685 57.2537 12.9685C57.2526 12.9685 57.2515 12.9685 57.2493 12.9685C56.9215 12.966 56.6566 12.6452 56.6566 12.2544C56.6576 11.87 56.9247 11.5568 57.2515 11.5555C57.2526 11.5555 57.2537 11.5555 57.2537 11.5555C57.4089 11.5555 57.5566 11.6281 57.6706 11.7617C57.7868 11.898 57.8508 12.0762 57.8508 12.2646C57.8508 12.4504 57.7868 12.6287 57.6706 12.7636Z" fill="#004B8D"/>
    <path d="M57.3837 12.2824V12.2785C57.439 12.2556 57.4977 12.1894 57.4977 12.0927C57.4977 12.0227 57.477 11.9705 57.4379 11.9348C57.3924 11.8928 57.325 11.875 57.2295 11.875C57.1524 11.875 57.0818 11.8814 57.0352 11.8903V12.635H57.1796V12.3384H57.223C57.2827 12.3396 57.3098 12.3651 57.3272 12.4593C57.3467 12.5522 57.362 12.6133 57.3717 12.635H57.5205C57.5085 12.6057 57.4879 12.5077 57.4684 12.4224C57.4532 12.3536 57.4282 12.3027 57.3837 12.2824ZM57.2371 12.2162H57.1796V12.0074C57.1904 12.0048 57.21 12.0023 57.2458 12.0023C57.3131 12.0036 57.3533 12.0379 57.3533 12.108C57.3522 12.1729 57.3098 12.2162 57.2371 12.2162Z" fill="#004B8D"/>
    <script xmlns=""/></svg>