<svg xmlns="http://www.w3.org/2000/svg" width="19" height="19" viewBox="0 0 19 19" fill="none">
<path d="M8.93809 0.459229C9.3129 0.459229 9.68819 0.459229 10.063 0.459229C10.1081 0.469072 10.1527 0.484541 10.1983 0.487822C11.5759 0.59001 12.8718 0.976728 14.0456 1.70001C16.8416 3.42313 18.3494 5.93376 18.4921 9.22204C18.5668 10.9409 18.1389 12.5572 17.2437 14.03C15.8186 16.3742 13.752 17.8124 11.0508 18.3214C10.7243 18.3828 10.3927 18.4142 10.0635 18.4592C9.68866 18.4592 9.31337 18.4592 8.93856 18.4592C8.71921 18.432 8.49892 18.4086 8.28005 18.3772C6.47642 18.1189 4.88415 17.3938 3.52673 16.1783C1.97909 14.7931 1.01152 13.0742 0.640927 11.0267C0.580806 10.6939 0.546988 10.3564 0.500488 10.0213C0.500488 9.64626 0.500488 9.27126 0.500488 8.89626C0.527261 8.67642 0.550276 8.4561 0.582215 8.23673C0.864972 6.27548 1.6921 4.57813 3.08099 3.16392C4.42855 1.79188 6.05322 0.93126 7.95032 0.59751C8.2777 0.539854 8.60883 0.504697 8.93809 0.459229ZM9.49092 11.2503C7.28288 11.3052 5.43886 12.1531 3.98281 13.8341C3.90014 13.9297 3.90108 13.9888 3.98281 14.0839C5.25239 15.5558 6.84607 16.4399 8.78215 16.6166C11.2748 16.8449 13.3504 15.972 15.0075 14.0975C15.1005 13.9925 15.0991 13.9255 15.0075 13.8205C13.5514 12.1489 11.7126 11.3033 9.49092 11.2503ZM9.59519 4.06063C8.14994 3.98001 6.87848 5.15235 6.80051 6.63782C6.72442 8.09095 7.88174 9.37766 9.33498 9.45595C10.8497 9.53751 12.1156 8.39938 12.1996 6.88063C12.2823 5.39985 11.1236 4.14595 9.59519 4.06063Z" fill="#F40C44"/>
<script xmlns=""/></svg>