<svg xmlns="http://www.w3.org/2000/svg" width="48" height="48" viewBox="0 0 48 48" fill="none">
    <g clip-path="url(#clip0_722_3080)">
    <path d="M24 48C37.2548 48 48 37.2548 48 24C48 10.7452 37.2548 0 24 0C10.7452 0 0 10.7452 0 24C0 37.2548 10.7452 48 24 48Z" fill="url(#paint0_linear_722_3080)"/>
    <path d="M35.6626 20.9585C35.6626 18.1285 33.3764 15.8423 30.5464 15.8423H17.4637C14.6337 15.8423 12.3475 18.1285 12.3475 20.9585V27.0416C12.3475 29.8717 14.6337 32.1579 17.4637 32.1579H30.5464C33.3764 32.1579 35.6626 29.8717 35.6626 27.0416V20.9585ZM27.9681 24.4533L22.1066 27.3538C21.875 27.4747 21.0995 27.3135 21.0995 27.0517V21.0895C21.0995 20.8276 21.885 20.6564 22.1167 20.7873L27.7365 23.8389C27.9681 23.9699 28.2199 24.3123 27.9782 24.4432L27.9681 24.4533Z" fill="white"/>
    </g>
    <defs>
    <linearGradient id="paint0_linear_722_3080" x1="7.02979" y1="7.02979" x2="40.9702" y2="40.9702" gradientUnits="userSpaceOnUse">
    <stop stop-color="#FF0000"/>
    <stop offset="1" stop-color="#9B0000"/>
    </linearGradient>
    <clipPath id="clip0_722_3080">
    <rect width="48" height="48" fill="white"/>
    </clipPath>
    </defs>
    <script xmlns=""/></svg>